<?xml version="1.0" encoding="UTF-8" standalone="no"?>
<svg
   viewBox="0 0 337.46 428.5"
   version="1.1"
   xmlns="http://www.w3.org/2000/svg"
>
  <path
     d="m 168.6138,64.736977 c 0.43653,-0.0012 0.87305,-0.0017 1.32281,-0.0034 7.3592,-0.01104 14.77521,0.167583 22.08007,1.105906 0.1138,0.109845 0.22757,0.219696 0.34481,0.33287 0.58296,0.09505 1.16926,0.171339 1.75629,0.239258 0.35513,0.04249 0.71025,0.08496 1.07614,0.128726 0.56069,0.06501 0.56069,0.06501 1.1327,0.131333 0.73643,0.08538 1.47273,0.171999 2.20884,0.260059 0.32822,0.03795 0.65646,0.07594 0.99464,0.115073 0.76165,0.124177 0.76165,0.124177 1.10643,0.457054 0.64417,0.116724 1.29133,0.218132 1.93948,0.31207 1.58323,0.243339 3.07351,0.579449 4.61161,1.019434 1.14608,0.238617 2.29598,0.455403 3.44794,0.665748 0,0.219696 0,0.439398 0,0.665755 0.21291,0.01242 0.4258,0.0249 0.64515,0.03773 1.79111,0.134232 3.36075,0.407099 5.048,0.997326 2.5421,0.878433 5.15349,1.593132 7.75381,2.293717 0,0.219701 0,0.439397 0,0.665754 0.32002,0.02743 0.64003,0.05492 0.96974,0.08322 1.83183,0.243806 3.52217,0.937661 5.23656,1.581158 0,0.219696 0,0.439398 0,0.665749 0.32001,0.04808 0.64002,0.09612 0.96974,0.145635 1.09902,0.187242 1.09902,0.187242 2.1334,0.520118 0,0.219696 0,0.439394 0,0.66575 0.34135,0.02748 0.6827,0.05492 1.03439,0.08322 1.00106,0.137652 1.76428,0.391609 2.65733,0.846491 0.98248,0.489745 1.96831,0.962392 2.97117,1.412119 0.24779,0.111352 0.49556,0.222699 0.75087,0.337427 0.50621,0.226666 1.01262,0.452914 1.51923,0.678752 1.3239,0.595841 2.57855,1.22845 3.82439,1.967994 0.60752,0.303965 1.21807,0.60234 1.83172,0.8946 0.30446,0.145464 0.60892,0.290928 0.9226,0.440802 0.2289,0.108563 0.45779,0.21712 0.69362,0.328972 0,0.219703 0,0.439398 0,0.665755 0.44401,0.128726 0.44401,0.128726 0.89702,0.260058 1.2156,0.420874 2.25494,0.943563 3.36982,1.570755 0.36534,0.202534 0.73069,0.405069 1.1071,0.613739 0.27468,0.181937 0.54935,0.363871 0.83236,0.551325 0,0.219696 0,0.439393 0,0.665749 0.27023,0.0618 0.54046,0.123578 0.81888,0.187246 1.49462,0.572202 2.65491,1.37932 3.94897,2.289818 0.71585,0.524817 0.71585,0.524817 1.43844,0.851691 0,0.219695 0,0.439397 0,0.665747 0.37001,0.128734 0.37001,0.128734 0.7475,0.260059 1.03564,0.430277 1.88502,0.947536 2.80819,1.57076 0.30445,0.202535 0.60891,0.405069 0.92258,0.613739 0.22891,0.181932 0.4578,0.363871 0.69364,0.551325 0,0.219697 0,0.439393 0,0.665749 0.85336,0.329547 0.85336,0.329547 1.72397,0.665749 0,0.219702 0,0.439397 0,0.665753 0.37,0.12358 0.37,0.12358 0.7475,0.249656 1.08477,0.462242 1.88607,1.030132 2.80818,1.7476 0.30446,0.23343 0.60892,0.46685 0.92259,0.70735 0.22891,0.20597 0.4578,0.41193 0.69364,0.62414 0,0.2197 0,0.4394 0,0.66576 0.19911,0.0275 0.39823,0.0549 0.60339,0.0832 1.00126,0.32222 1.47827,0.8112 2.15496,1.58116 0,0.2197 0,0.43939 0,0.66575 0.27734,0.0892 0.55468,0.1785 0.84043,0.27046 0.29156,0.13044 0.58314,0.26089 0.88353,0.39529 0.11379,0.32955 0.22756,0.65909 0.3448,0.99862 0.19146,0.0905 0.38291,0.18108 0.58016,0.27437 1.16039,0.56839 1.98755,1.44394 2.89472,2.32622 0.29553,0.28438 0.29553,0.28438 0.59705,0.57449 0.41465,0.39986 0.82843,0.80056 1.2414,1.20204 0.63451,0.61615 1.27263,1.22865 1.91118,1.84089 0.40248,0.38901 0.80475,0.77822 1.20678,1.16767 0.19177,0.18378 0.38354,0.36757 0.5811,0.55693 1.33143,1.30136 1.33143,1.30136 1.33143,2.04365 0.22756,0 0.45512,0 0.68959,0 0,0.32955 0,0.6591 0,0.99863 0.45513,0.2197 0.91026,0.4394 1.37918,0.66575 0,0.2197 0,0.43939 0,0.66575 0.19911,0.0687 0.39823,0.13731 0.60339,0.20805 1.0587,0.62462 1.49073,1.45297 2.15495,2.45495 0.45784,0.44566 0.91775,0.88931 1.37918,1.3315 0.44003,0.50599 0.87121,1.01927 1.29299,1.53956 0.21155,0.25831 0.42311,0.51663 0.64109,0.78276 0.47948,0.67356 0.47948,0.67356 0.47948,1.3393 0.34134,0.10985 0.68269,0.2197 1.03437,0.33289 0.23706,0.68654 0.23706,0.68654 0.34481,1.33149 0.22756,0 0.45512,0 0.68959,0 0.44446,0.47461 0.44446,0.47461 0.90508,1.10265 0.15378,0.20469 0.30756,0.40937 0.46601,0.62023 0.35288,0.60726 0.35288,0.60726 0.35288,1.60588 0.34134,0.10985 0.68268,0.21969 1.03437,0.33286 0.23705,0.68656 0.23705,0.68656 0.3448,1.3315 0.22756,0 0.45513,0 0.68959,0 0.42075,0.62253 0.81096,1.26444 1.18522,1.91404 0.83639,1.45463 0.83639,1.45463 1.82231,2.81384 0.44041,0.59813 0.44041,0.59813 0.44041,1.59676 0.22756,0 0.45513,0 0.68958,0 0.45463,0.74785 0.9068,1.49693 1.35763,2.24691 0.12867,0.21112 0.25735,0.42224 0.38991,0.63974 0.61615,1.02893 1.09662,1.94492 1.35561,3.10511 0.22756,0 0.45512,0 0.68959,0 0.91944,1.77532 1.8389,3.55067 2.75835,5.326 0.12761,0.22582 0.25523,0.45163 0.38671,0.68428 0.30288,0.64723 0.30288,0.64723 0.30288,1.64584 0.22756,0 0.45512,0 0.68959,0 0.97071,1.67816 1.55806,3.07118 1.72396,4.99313 0.22757,0 0.45514,0 0.68959,0 0.34776,0.80336 0.69201,1.60786 1.03439,2.41335 0.0987,0.227 0.19734,0.45399 0.299,0.68786 0.49177,1.16431 0.73538,1.94819 0.73538,3.22342 0.22756,0 0.45512,0 0.68958,0 1.45196,3.97307 2.87982,7.95211 4.24335,11.95435 0.16907,0.49165 0.34103,0.98237 0.515,1.47242 0.46251,1.30897 0.88051,2.57875 1.1247,3.94517 0.1734,0.90204 0.36086,1.7086 0.66804,2.57979 0.41504,1.22712 0.62557,2.45033 0.84043,3.72274 0.18274,0.98302 0.18274,0.98302 0.51855,2.01805 0.45641,1.58857 0.74777,3.18298 1.03303,4.80719 0.0592,0.33469 0.1185,0.66939 0.17956,1.01422 0.39375,2.25229 0.76811,4.50705 1.11341,6.76674 0.0411,0.26158 0.0822,0.52317 0.12451,0.7927 0.69398,4.69334 0.77043,9.4539 0.88833,14.18669 0.008,0.30359 0.0154,0.60716 0.0234,0.91992 0.20617,8.41565 0.24432,17.00299 -1.10094,25.33563 -0.0903,0.57465 -0.18005,1.14938 -0.26937,1.72419 -0.0427,0.27333 -0.0852,0.54667 -0.12922,0.82829 -0.15293,1.0546 -0.26827,2.1114 -0.37459,3.17124 -0.0888,0.64251 -0.0888,0.64251 -0.41205,1.72435 -0.33696,1.14815 -0.5341,2.23305 -0.71113,3.41198 -0.23423,1.54927 -0.56521,2.99338 -1.0344,4.49381 -0.11953,0.56084 -0.23412,1.12267 -0.34478,1.68519 -0.25133,1.25867 -0.60617,2.42644 -1.03439,3.64082 -0.11232,0.47752 -0.21965,0.95617 -0.32324,1.43552 -0.63,2.82427 -1.74794,5.51221 -2.7799,8.21787 -0.56891,-0.10986 -1.13782,-0.2197 -1.72397,-0.33289 0,-0.21968 0,-0.43939 0,-0.66575 -0.22757,0 -0.45512,0 -0.68958,0 -0.0853,-0.19223 -0.17068,-0.38446 -0.2586,-0.58252 -0.41028,-0.79373 -0.41028,-0.79373 -1.16369,-1.45634 -0.21334,-0.20596 -0.42668,-0.41193 -0.64648,-0.62414 0,-0.21969 0,-0.43939 0,-0.66575 -0.22756,0 -0.45513,0 -0.68958,0 -0.44447,-0.4863 -0.44447,-0.4863 -0.90508,-1.12344 -0.23068,-0.31282 -0.23068,-0.31282 -0.46602,-0.63195 -0.35288,-0.57474 -0.35288,-0.57474 -0.35288,-1.24048 -0.34135,-0.10985 -0.68269,-0.21969 -1.03437,-0.33288 -0.11495,-0.44383 -0.22987,-0.88767 -0.3448,-1.3315 -0.34135,-0.10985 -0.68269,-0.21969 -1.03439,-0.33287 -0.57304,-0.64877 -1.09798,-1.2894 -1.61622,-1.97646 -0.14333,-0.18342 -0.28668,-0.36687 -0.43435,-0.55587 -1.05257,-1.37326 -1.05257,-1.37326 -1.05257,-2.12793 -0.34135,-0.10984 -0.68269,-0.2197 -1.03439,-0.33287 -0.54152,-0.62605 -1.05544,-1.27465 -1.55156,-1.93484 -0.26668,-0.35229 -0.53337,-0.70458 -0.80812,-1.06755 -0.24533,-0.32739 -0.49068,-0.6548 -0.74345,-0.99211 -0.20268,-0.24846 -0.40536,-0.49689 -0.61417,-0.75288 -0.42022,-0.57863 -0.42022,-0.57863 -0.42022,-1.24438 -0.34134,-0.10985 -0.68269,-0.2197 -1.03438,-0.33288 -0.52697,-0.59812 -1.02523,-1.22 -1.50848,-1.85161 -0.30725,-0.39625 -0.61526,-0.79195 -0.92393,-1.18717 -0.24585,-0.31483 -0.24585,-0.31483 -0.49665,-0.63601 -0.8946,-1.12511 -1.82833,-2.21907 -2.76004,-3.31559 -1.371,-1.6173 -2.71989,-3.24604 -4.02978,-4.9099 -1.43097,-1.81706 -2.93227,-3.55916 -4.47424,-5.28831 -0.63303,-0.78668 -0.63303,-0.78668 -0.63303,-1.45242 -0.22755,0 -0.45512,0 -0.68958,0 -0.0924,-0.19911 -0.18489,-0.39821 -0.28014,-0.60334 -0.41712,-0.7418 -0.82778,-1.13478 -1.44384,-1.72679 -0.48824,-0.55609 -0.96906,-1.11831 -1.44381,-1.68519 -0.37002,-0.43831 -0.37002,-0.43831 -0.74751,-0.8855 -0.56702,-0.75806 -0.56702,-0.75806 -0.56702,-1.42381 -0.22757,0 -0.45513,0 -0.68959,0 -0.30319,-0.4332 -0.60296,-0.86883 -0.89027,-1.312 -0.89409,-1.25317 -1.94382,-2.39085 -2.96173,-3.5511 -0.63033,-0.79578 -0.63033,-0.79578 -0.63033,-1.46154 -0.34134,-0.10984 -0.68268,-0.21969 -1.03437,-0.33287 -0.51719,-0.56823 -0.51719,-0.56823 -1.03439,-1.26909 -0.17067,-0.22871 -0.34135,-0.45742 -0.51719,-0.69306 -0.17067,-0.23128 -0.34135,-0.46256 -0.51718,-0.70085 -0.19201,-0.23472 -0.38403,-0.46943 -0.58185,-0.71127 -0.45255,-0.62023 -0.45255,-0.62023 -0.45255,-1.28598 -0.34133,-0.10986 -0.68267,-0.2197 -1.03437,-0.33288 -0.23705,-0.68655 -0.23705,-0.68655 -0.3448,-1.3315 -0.22756,0 -0.45512,0 -0.68959,0 -0.56249,-0.64108 -1.08169,-1.27933 -1.59466,-1.95564 -0.1449,-0.18495 -0.2898,-0.36988 -0.43908,-0.56042 -1.0694,-1.39112 -1.0694,-1.39112 -1.0694,-2.1442 -0.34135,-0.10985 -0.6827,-0.21969 -1.03438,-0.33287 -0.52698,-0.59813 -1.02522,-1.22001 -1.50847,-1.85162 -0.30771,-0.39667 -0.61618,-0.7928 -0.92529,-1.18847 -0.16396,-0.20994 -0.3279,-0.41987 -0.49682,-0.63618 -0.88764,-1.11711 -1.81294,-2.20418 -2.73697,-3.29331 -1.48235,-1.75399 -2.95998,-3.51121 -4.41768,-5.28439 -0.16064,-0.19328 -0.32128,-0.38657 -0.4868,-0.58571 -0.67452,-0.82455 -1.14843,-1.46663 -1.49576,-2.47258 -0.22756,0 -0.45513,0 -0.68958,0 -0.55895,-0.60855 -0.55895,-0.60855 -1.18523,-1.41472 -0.2058,-0.26262 -0.41157,-0.52521 -0.6236,-0.79579 -0.19956,-0.25917 -0.39912,-0.51835 -0.60473,-0.78537 -0.19601,-0.23858 -0.39201,-0.47717 -0.59396,-0.72298 -0.44043,-0.60853 -0.44043,-0.60853 -0.44043,-1.27428 -0.22756,0 -0.45512,0 -0.68958,0 -0.66233,-0.72921 -1.28288,-1.46011 -1.89638,-2.2261 -0.172,-0.20833 -0.34399,-0.41666 -0.52122,-0.63129 -0.73835,-0.91253 -1.32615,-1.68447 -1.77381,-2.76637 -0.096,-0.2313 -0.192,-0.46257 -0.29092,-0.70087 -0.34134,-0.10985 -0.68269,-0.21969 -1.03438,-0.33287 -0.56259,-0.64119 -1.08144,-1.27936 -1.59467,-1.95564 -0.30478,-0.39264 -0.61007,-0.78488 -0.91585,-1.17677 -0.23202,-0.29808 -0.23202,-0.29808 -0.46871,-0.6022 -1.14749,-1.45123 -2.36453,-2.8495 -3.57185,-4.2544 -1.23984,1.12656 -2.25371,2.31092 -3.26023,3.63529 -0.85117,1.10625 -1.76016,2.16554 -2.66592,3.23026 -1.43296,1.69296 -2.85202,3.39441 -4.24528,5.11796 -1.35911,1.68055 -2.74125,3.34123 -4.13753,4.99313 -1.44383,1.70913 -2.87667,3.42557 -4.28837,5.15957 -0.15597,0.19144 -0.31196,0.38286 -0.47266,0.58009 -0.85531,1.05448 -1.686,2.1228 -2.50119,3.20637 -0.27735,0.34327 -0.55469,0.68656 -0.84043,1.04023 -0.22757,0 -0.45513,0 -0.68959,0 -0.22757,0.54924 -0.45513,1.09849 -0.68959,1.66438 -0.22756,0 -0.45512,0 -0.68959,0 -0.0924,0.19224 -0.18489,0.38447 -0.28014,0.58253 -0.41954,0.76744 -0.85882,1.42156 -1.44383,2.08047 -0.22756,0 -0.45512,0 -0.68958,0 -0.0285,0.18537 -0.0568,0.37074 -0.0862,0.56173 -0.33971,1.01123 -0.93595,1.61628 -1.63777,2.43416 -0.22445,0.26388 -0.44891,0.52778 -0.68016,0.79967 -0.23778,0.27849 -0.47557,0.55696 -0.72056,0.84389 -0.92496,1.08581 -1.83512,2.17831 -2.72334,3.29235 -0.17065,0.21328 -0.34129,0.42657 -0.5171,0.64632 -0.33613,0.42141 -0.67047,0.84415 -1.0029,1.26827 -0.40151,0.50257 -0.82488,0.98873 -1.25182,1.47137 -0.22757,0 -0.45512,0 -0.68959,0 -0.0871,0.24373 -0.17423,0.48746 -0.26399,0.73857 -0.57852,1.25844 -1.45857,2.14309 -2.40278,3.16232 -0.54103,0.74213 -0.54103,0.74213 -0.23974,1.58765 0.51516,0.87376 1.08028,1.62123 1.74284,2.39644 1.16367,1.3642 1.16367,1.3642 1.16367,2.10128 0.34135,0.10986 0.6827,0.21969 1.03439,0.33288 0.51988,0.54742 0.51988,0.54742 1.07747,1.26908 0.20891,0.26733 0.4178,0.53466 0.63303,0.81009 0.23201,0.30251 0.46401,0.60503 0.70306,0.9167 0.40862,0.53017 0.81728,1.06032 1.22681,1.58986 0.39522,0.51185 0.78834,1.02522 1.18135,1.53866 0.54882,0.68387 1.08398,1.27106 1.72936,1.86461 1.72397,1.80034 1.72397,1.80034 1.72397,2.99588 0.20622,0.0755 0.41246,0.15104 0.62494,0.22885 0.95834,0.55513 1.2383,1.17151 1.78861,2.10128 0.2489,0.24029 0.4978,0.48059 0.75424,0.72816 0.20623,0.19909 0.41246,0.39821 0.62494,0.60335 0,0.21968 0,0.43939 0,0.66574 0.67235,-0.0649 0.67235,-0.0649 1.37919,-0.33288 0.36209,-0.61572 0.36209,-0.61572 0.68958,-1.33149 0.45675,-0.44669 0.91699,-0.89006 1.37918,-1.3315 1.80146,-2.02681 3.49126,-4.13901 5.16812,-6.26222 1.35565,-1.7088 2.76205,-3.3757 4.17246,-5.04246 1.28348,-1.5187 2.55136,-3.04814 3.80469,-4.59012 0.23229,-0.28574 0.23229,-0.28574 0.46929,-0.57725 0.61334,-0.75674 1.21842,-1.51263 1.79073,-2.299 0.15022,-0.17679 0.30045,-0.35358 0.45523,-0.53573 0.22757,0 0.45512,0 0.68958,0 0.0782,-0.23343 0.15646,-0.46686 0.23704,-0.70736 0.57861,-1.22359 1.19969,-1.98875 2.17652,-2.95426 0.45513,0 0.91026,0 1.37918,0 0.70171,0.76587 0.70171,0.76587 1.40073,1.76839 0.89853,1.29947 0.89853,1.29947 1.95967,2.46927 0.43233,0.42259 0.43233,0.42259 0.43233,1.08834 0.34135,0.10985 0.68269,0.2197 1.03439,0.33288 0.60473,0.64104 0.60473,0.64104 1.22832,1.43552 0.20667,0.25961 0.41336,0.51921 0.62629,0.78668 0.49572,0.68617 0.86321,1.35961 1.24854,2.10517 0.24177,0.23344 0.48356,0.46686 0.73267,0.70737 0.6465,0.62414 0.6465,0.62414 0.6465,1.28989 0.22756,0 0.45512,0 0.68958,0 0.5625,0.64108 1.08171,1.27933 1.59467,1.95565 0.1449,0.18493 0.28979,0.36987 0.43908,0.56042 1.0694,1.3911 1.0694,1.3911 1.0694,2.14419 0.34134,0.10984 0.6827,0.21968 1.03438,0.33287 0.51988,0.54742 0.51988,0.54742 1.07748,1.26909 0.20889,0.26732 0.4178,0.53466 0.63302,0.81008 0.23201,0.30252 0.46402,0.60503 0.70306,0.91671 0.40863,0.53017 0.81729,1.06032 1.22681,1.58985 0.39523,0.51184 0.78834,1.02522 1.18135,1.53866 0.55105,0.68663 1.09165,1.26008 1.72936,1.86461 0.51545,0.59204 1.02493,1.18892 1.53003,1.78921 0.26267,0.31153 0.52535,0.62305 0.79598,0.94401 0.25647,0.30638 0.51292,0.61275 0.77714,0.92841 0.26002,0.29951 0.52001,0.59903 0.78791,0.9076 0.59127,0.75678 0.59127,0.75678 0.59127,1.42254 0.22756,0 0.45513,0 0.68959,0 0.11378,0.43939 0.22756,0.87878 0.34479,1.33149 0.22756,0 0.45512,0 0.68959,0 0.4741,0.50322 0.4741,0.50322 1.03438,1.22748 0.21512,0.27419 0.43023,0.54838 0.65187,0.83089 0.24001,0.30937 0.48003,0.61876 0.7273,0.93751 1.87364,2.3903 3.78095,4.73182 5.80055,7.009 1.64596,1.86309 3.20534,3.78807 4.7618,5.72104 2.16253,2.68546 4.34526,5.35339 6.5696,7.99145 0.18871,0.22398 0.3774,0.44797 0.57183,0.67875 0.83167,0.98656 1.66476,1.97189 2.50169,2.95427 0.25156,0.29779 0.50313,0.59558 0.76231,0.9024 0.21557,0.25316 0.43114,0.50634 0.65324,0.76718 0.4458,0.60594 0.4458,0.60594 0.4458,1.27169 0.22756,0 0.45513,0 0.68959,0 0.43203,0.51713 0.83661,1.05571 1.22833,1.60196 1.4571,1.98315 3.02401,3.85224 4.63316,5.72129 0.48906,0.57513 0.9775,1.15074 1.46538,1.72679 0.25512,0.30123 0.51024,0.60246 0.77309,0.91281 0.28535,0.33727 0.57069,0.67454 0.86468,1.02203 0.16901,0.19964 0.33801,0.39928 0.51215,0.60496 1.13727,1.34421 2.26972,2.69206 3.39911,4.04246 0.56659,0.67327 1.13939,1.34123 1.71319,2.00879 0.35214,0.4164 0.70413,0.83291 1.05594,1.24957 0.16638,0.19045 0.33279,0.38089 0.50422,0.5771 1.10042,1.31739 1.10042,1.31739 1.05139,2.23154 -0.15134,0.29866 -0.15134,0.29866 -0.30574,0.60334 -0.26668,0.53552 -0.26668,0.53552 -0.53873,1.08185 -0.16357,0.30208 -0.32713,0.60416 -0.49564,0.9154 -0.22757,0 -0.45514,0 -0.68959,0 -0.22757,0.76895 -0.45515,1.53788 -0.6896,2.33012 -0.22757,0 -0.45513,0 -0.68958,0 -0.0853,0.28836 -0.17068,0.57672 -0.2586,0.87382 -0.45788,1.19354 -1.01242,2.10985 -1.81017,3.12069 -0.22756,0 -0.45512,0 -0.68958,0 -0.0853,0.22656 -0.17068,0.45313 -0.2586,0.68656 -0.51443,1.16712 -1.14416,2.21485 -1.81017,3.30795 -0.22756,0 -0.45513,0 -0.68958,0 -0.0787,0.17035 -0.15734,0.3407 -0.23841,0.51622 -0.62727,1.13346 -1.38428,2.16069 -2.1536,3.20782 -0.15267,0.21348 -0.30536,0.42695 -0.46265,0.6469 -1.1607,1.58149 -1.1607,1.58149 -2.31726,1.95369 -0.11853,0.44295 -0.23268,0.88699 -0.34479,1.3315 -1.31178,1.81975 -2.83846,3.45144 -4.48233,4.99313 -0.192,0.25402 -0.38401,0.50805 -0.58184,0.76978 -0.22401,0.27805 -0.22401,0.27805 -0.45253,0.56172 -0.22757,0 -0.45514,0 -0.6896,0 -0.0924,0.19911 -0.18489,0.39821 -0.28014,0.60334 -0.40916,0.72766 -0.78733,1.19863 -1.44382,1.7268 -0.22757,0 -0.45514,0 -0.68959,0 -0.11378,0.43939 -0.22756,0.87878 -0.3448,1.33149 -0.22755,0 -0.45512,0 -0.68958,0 -0.11378,0.32955 -0.22757,0.6591 -0.3448,0.99863 -0.49237,0.39796 -0.98619,0.7945 -1.48961,1.17936 -0.61608,0.51595 -1.11581,1.06437 -1.63508,1.67089 -0.82756,0.96041 -1.66694,1.75847 -2.7368,2.47575 -0.22757,0 -0.45514,0 -0.68959,0 -0.22757,0.4394 -0.45513,0.87879 -0.68959,1.3315 -0.22756,0 -0.45513,0 -0.68958,0 -0.0711,0.19224 -0.14223,0.38447 -0.2155,0.58253 -0.64718,1.02242 -1.50613,1.43284 -2.54286,2.08048 -0.58207,0.54754 -1.15627,1.10295 -1.72398,1.66437 -0.41934,0.37229 -0.84334,0.73975 -1.27142,1.10265 -0.20045,0.17036 -0.4009,0.34071 -0.60743,0.51621 -0.53469,0.3784 -0.53469,0.3784 -1.22429,0.3784 0,0.21969 0,0.4394 0,0.66574 -0.5689,0.21971 -1.13782,0.43941 -1.72396,0.66576 0,0.21969 0,0.43939 0,0.66574 -0.47669,0.32552 -0.95643,0.64764 -1.45056,0.94793 -0.65829,0.40845 -1.28227,0.84965 -1.91119,1.29898 -1.12058,0.74897 -1.12058,0.74897 -1.81017,0.74897 0,0.21971 0,0.43939 0,0.66575 -0.64244,0.50192 -0.64244,0.50192 -1.48691,1.04025 -0.27602,0.17935 -0.55203,0.35872 -0.83641,0.54351 -0.77982,0.4135 -0.77982,0.4135 -1.8142,0.4135 -0.11378,0.32955 -0.22758,0.65909 -0.34479,0.99863 -0.68824,0.4616 -0.68824,0.4616 -1.53004,0.89459 -0.41534,0.2182 -0.41534,0.2182 -0.83908,0.4408 -0.73402,0.32898 -0.73402,0.32898 -1.42362,0.32898 0,0.21969 0,0.4394 0,0.66576 -0.77463,0.4389 -1.55052,0.87543 -2.32736,1.31068 -0.21868,0.12422 -0.43734,0.24845 -0.66266,0.37644 -1.06576,0.59485 -2.01455,1.05871 -3.21626,1.30875 0,0.21969 0,0.43939 0,0.66575 -1.00198,0.4183 -1.65366,0.66574 -2.75837,0.66574 0,0.21971 0,0.43941 0,0.66576 -0.79646,0.2197 -1.59294,0.43939 -2.41355,0.66575 0,0.2197 0,0.4394 0,0.66575 -1.06102,0.50354 -2.12487,1.00125 -3.18935,1.49794 -0.3009,0.14289 -0.60179,0.28578 -0.91182,0.43299 -0.29112,0.13517 -0.58223,0.27034 -0.88219,0.4096 -0.40084,0.18828 -0.40084,0.18828 -0.80979,0.38033 -0.75794,0.27502 -0.75794,0.27502 -2.13711,0.27502 0,0.2197 0,0.4394 0,0.66575 -0.83213,0.33573 -1.66542,0.66809 -2.49975,0.99862 -0.23513,0.0953 -0.47025,0.19052 -0.71249,0.28867 -1.20601,0.47478 -2.01794,0.70996 -3.33884,0.70996 0,0.2197 0,0.4394 0,0.66575 -0.39114,0.13259 -0.78227,0.26518 -1.18524,0.40179 -0.52437,0.17813 -1.04875,0.35627 -1.57312,0.53443 -0.25645,0.0869 -0.51291,0.17377 -0.77714,0.2633 -1.25631,0.42715 -2.50841,0.86146 -3.75366,1.31786 -1.20801,0.43993 -2.42535,0.83512 -3.65806,1.20667 -0.37512,0.11456 -0.75025,0.22913 -1.13674,0.34718 -1.01821,0.25615 -1.01821,0.25615 -2.39739,0.25615 0,0.2197 0,0.43939 0,0.66575 -0.32446,0.0644 -0.64892,0.12872 -0.98321,0.19505 -0.42935,0.0867 -0.85869,0.17334 -1.30106,0.26265 -0.63602,0.12745 -0.63602,0.12745 -1.28488,0.25747 -1.14127,0.25716 -2.21652,0.59144 -3.32673,0.9492 -0.6225,0.12311 -1.24764,0.23446 -1.87482,0.33289 -1.48051,0.24563 -2.88754,0.5965 -4.33148,0.99862 -0.80451,0.11095 -1.60903,0.22192 -2.41355,0.33287 -0.36002,0.106 -0.72003,0.21198 -1.09095,0.32118 -1.46506,0.38169 -2.87699,0.55415 -4.38265,0.69825 -1.71065,0.0257 -1.71065,0.0257 -3.14625,0.64495 -0.50235,0.0721 -1.00792,0.12368 -1.51386,0.16644 -0.48602,0.0412 -0.48602,0.0412 -0.98186,0.0833 -0.51402,0.0412 -0.51402,0.0412 -1.03841,0.0832 -0.47403,0.0412 -0.47403,0.0412 -0.95763,0.0833 -5.9853,0.49375 -11.97966,0.65019 -17.9845,0.64494 -0.32337,1.3e-4 -0.64673,2.6e-4 -0.9799,3.4e-4 -7.36858,-0.004 -14.72797,-0.29039 -22.05664,-1.06144 0,-0.2197 0,-0.4394 0,-0.66575 -0.19691,0.008 -0.3938,0.0153 -0.59666,0.0234 -3.56832,0.0767 -6.97446,-0.59687 -10.43675,-1.35491 -0.62986,-0.13532 -1.25973,-0.27054 -1.88963,-0.40568 -0.65593,-0.14209 -1.31186,-0.28425 -1.96776,-0.4265 -0.33044,-0.0709 -0.66091,-0.1416 -1.00138,-0.21455 -1.63417,-0.35544 -3.21146,-0.75138 -4.79547,-1.28339 -0.49369,-0.11229 -0.98934,-0.21707 -1.48692,-0.31207 -1.29434,-0.26895 -2.52113,-0.62476 -3.77117,-1.04283 -1.29352,-0.42219 -2.59673,-0.81257 -3.90049,-1.20408 -0.25092,-0.0754 -0.50186,-0.15088 -0.76038,-0.22861 -0.60127,-0.18061 -1.20264,-0.36092 -1.80403,-0.54116 0,-0.2197 0,-0.4394 0,-0.66576 -0.32001,-0.0274 -0.64002,-0.0549 -0.96972,-0.0832 -1.83185,-0.24381 -3.52219,-0.93767 -5.23657,-1.58115 0,-0.21971 0,-0.43941 0,-0.66576 -1.13782,-0.2197 -2.27563,-0.43939 -3.44794,-0.66575 0,-0.21969 0,-0.4394 0,-0.66576 -1.02403,-0.21968 -2.04808,-0.43939 -3.10315,-0.66574 0,-0.2197 0,-0.4394 0,-0.66575 -0.27645,-0.0228 -0.552904,-0.0455 -0.837737,-0.0689 -1.62794,-0.34908 -2.924025,-1.05239 -4.377267,-1.82433 -0.58121,-0.30241 -1.162603,-0.60451 -1.744178,-0.9063 -0.282173,-0.14723 -0.564346,-0.29446 -0.855076,-0.44616 -1.628638,-0.84088 -3.285381,-1.62734 -4.94311,-2.41319 0,-0.2197 0,-0.43939 0,-0.66574 -0.270234,-0.0481 -0.540468,-0.0961 -0.818887,-0.14564 -0.905084,-0.18724 -0.905084,-0.18724 -1.594675,-0.52011 0,-0.2197 0,-0.4394 0,-0.66576 -0.177789,-0.0274 -0.355572,-0.0549 -0.538735,-0.0832 -1.200594,-0.35664 -2.17549,-0.96043 -3.254,-1.58116 0,-0.2197 0,-0.43939 0,-0.66574 -0.206221,-0.0481 -0.412457,-0.0961 -0.624939,-0.14565 -0.603038,-0.14971 -1.197904,-0.33002 -1.788615,-0.52011 -0.113784,-0.2197 -0.227568,-0.4394 -0.344802,-0.66576 -0.628178,-0.36519 -1.269662,-0.70932 -1.91791,-1.04023 -0.523353,-0.26904 -0.523353,-0.26904 -1.057284,-0.54352 -0.269779,-0.13645 -0.539572,-0.27291 -0.817534,-0.41349 0,-0.21971 0,-0.43941 0,-0.66575 -0.248901,-0.0893 -0.497795,-0.17851 -0.754236,-0.27047 -1.735747,-0.70754 -2.943622,-1.56633 -4.202173,-2.89185 -0.554862,-0.52988 -0.554862,-0.52988 -1.292985,-0.9154 -1.448318,-0.85112 -2.835593,-1.81384 -4.094425,-2.91267 0,-0.21969 0,-0.43939 0,-0.66574 -0.199122,-0.0893 -0.398237,-0.17852 -0.603386,-0.27047 -0.794925,-0.40504 -1.472462,-0.82914 -2.154925,-1.39391 0,-0.2197 0,-0.43941 0,-0.66576 -0.568921,-0.21969 -1.13785,-0.43938 -1.724,-0.66574 0,-0.21969 0,-0.4394 0,-0.66575 -0.191978,-0.0824 -0.38401,-0.16478 -0.581833,-0.24967 -1.434973,-0.74885 -2.559758,-1.77279 -3.701584,-2.88412 -0.658221,-0.6391 -1.321585,-1.27315 -1.984812,-1.90746 -0.539608,-0.51793 -1.079286,-1.03588 -1.618895,-1.55386 -0.268022,-0.25595 -0.535984,-0.51191 -0.81216,-0.77562 -1.476399,-1.41939 -2.895906,-2.86273 -4.248215,-4.39345 -0.423378,-0.46816 -0.878765,-0.90908 -1.339845,-1.3428 -0.538728,-0.54092 -0.538728,-0.54092 -0.538728,-1.20667 -0.227621,0 -0.455137,0 -0.689584,0 0,-0.32956 0,-0.6591 0,-0.99864 -0.455136,-0.21968 -0.910273,-0.43938 -1.379204,-0.66574 0,-0.21969 0,-0.4394 0,-0.66575 -0.227569,0 -0.455092,0 -0.689583,0 -0.0782,-0.18537 -0.156442,-0.37074 -0.237046,-0.56173 -0.434762,-0.81898 -0.434762,-0.81898 -1.228311,-1.51873 -1.137158,-1.09783 -2.146641,-2.27044 -3.016955,-3.57842 0,-0.21969 0,-0.4394 0,-0.66575 -0.227569,0 -0.455145,0 -0.689584,0 -0.09248,-0.1991 -0.184918,-0.3982 -0.280189,-0.60334 -0.361583,-0.72533 -0.361583,-0.72533 -0.883523,-1.18586 -0.791588,-0.76422 -1.353244,-1.62096 -1.939448,-2.53818 0,-0.2197 0,-0.4394 0,-0.66576 -0.227568,0 -0.455137,0 -0.689628,0 -0.519888,-0.70475 -0.519888,-0.70475 -1.07747,-1.62275 -0.185747,-0.30123 -0.371547,-0.60246 -0.562985,-0.91281 -0.42828,-0.79319 -0.42828,-0.79319 -0.42828,-1.45894 -0.227577,0 -0.455145,0 -0.689583,0 -0.383821,-0.4772 -0.383821,-0.4772 -0.797326,-1.14425 -0.15383,-0.24729 -0.307627,-0.49446 -0.46603,-0.74911 -0.558814,-0.93379 -1.099456,-1.87589 -1.633775,-2.82294 -0.459264,-0.78602 -0.931775,-1.55986 -1.414202,-2.33271 -0.155219,-0.24998 -0.310483,-0.49995 -0.470458,-0.75752 -0.313029,-0.50282 -0.628125,-1.00452 -0.945325,-1.50492 -0.754326,-1.21535 -1.36095,-2.23147 -1.513615,-3.6708 -0.227568,0 -0.455137,0 -0.689576,0 -0.06399,-0.48403 -0.06399,-0.48403 -0.129295,-0.97783 -0.07114,-0.33642 -0.142208,-0.67282 -0.215493,-1.01943 -0.227568,-0.10985 -0.455137,-0.2197 -0.689583,-0.33288 -0.344788,-0.33288 -0.344788,-0.33288 -0.44851,-1.08315 0.136713,-1.20477 0.592875,-1.65197 1.418229,-2.55767 0.284909,-0.32097 0.569811,-0.64193 0.863354,-0.97263 0.228108,-0.2552 0.228108,-0.2552 0.460783,-0.51556 0.786527,-0.8972 1.528283,-1.82758 2.274667,-2.75597 1.552382,-1.92026 3.140315,-3.81019 4.740317,-5.69358 1.650168,-1.95351 3.22946,-3.95634 4.780376,-5.98412 0.26546,-0.3419 0.26546,-0.3419 0.536226,-0.6907 0.15566,-0.20317 0.311319,-0.40636 0.47163,-0.61569 0.138187,-0.14353 0.276313,-0.28706 0.418672,-0.43496 0.227569,0 0.455137,0 0.689584,0 0.116626,-0.3482 0.116626,-0.3482 0.235662,-0.70344 0.55297,-1.17057 1.330962,-2.06118 2.19946,-3.02059 1.139613,-1.22206 1.139613,-1.22206 2.04719,-2.6006 0.227569,0 0.455137,0 0.689583,0 0.341353,-0.82386 0.341353,-0.82386 0.689629,-1.66437 0.227516,0 0.455084,0 0.689575,0 0.07953,-0.17679 0.159087,-0.35358 0.241074,-0.53572 0.590026,-1.04696 1.339488,-1.94859 2.107806,-2.87624 0.165478,-0.20157 0.330949,-0.40315 0.501427,-0.61082 1.676829,-2.03657 3.378881,-4.05349 5.08129,-6.07009 1.956228,-2.31766 3.880894,-4.65886 5.795497,-7.0086 0.161594,-0.19829 0.32325,-0.39659 0.489753,-0.60089 0.644806,-0.7929 1.283577,-1.58347 1.884752,-2.40799 0.147999,-0.17422 0.295997,-0.34843 0.448465,-0.52793 0.227576,0 0.455136,0 0.689628,0 0.07114,-0.22654 0.142208,-0.45312 0.215493,-0.68654 0.633034,-1.30572 1.55378,-2.24077 2.542818,-3.30795 0.958951,-1.10532 0.958951,-1.10532 1.72397,-2.33013 0.227561,0 0.455122,0 0.689591,0 0.128004,-0.26777 0.128004,-0.26777 0.258599,-0.54092 0.536675,-0.98445 1.132424,-1.88814 1.810167,-2.78783 0.227561,0 0.455122,0 0.689591,0 0.02135,-0.18537 0.04264,-0.37074 0.06467,-0.56173 0.396855,-1.09047 1.149243,-1.62717 2.004107,-2.43415 0.543682,-0.66216 1.061555,-1.3389 1.578515,-2.02066 0.414874,-0.54359 0.849233,-1.07323 1.28759,-1.59937 0.592016,-0.66985 0.592016,-0.66985 0.926636,-1.37309 0.227561,0 0.455122,0 0.689584,0 0.09267,-0.19371 0.185344,-0.38743 0.28082,-0.587 0.413178,-0.75256 0.870777,-1.34913 1.43238,-2.0045 0.295336,-0.34724 0.295336,-0.34724 0.596646,-0.70151 0.204898,-0.23835 0.409797,-0.47672 0.620904,-0.72232 0.406255,-0.47514 0.812123,-0.95061 1.217549,-1.42641 0.269687,-0.31415 0.269687,-0.31415 0.544807,-0.63462 0.417222,-0.5064 0.79662,-1.04141 1.168394,-1.57978 0.227561,0 0.45513,0 0.689591,0 0.0889,-0.24158 0.177782,-0.48317 0.269368,-0.73207 0.438295,-0.97241 0.95126,-1.70082 1.626996,-2.53428 0.209785,-0.26303 0.419578,-0.52606 0.635709,-0.79707 0.188452,-0.19696 0.376904,-0.39392 0.571072,-0.59683 0.227568,0 0.455122,0 0.689583,0 0.227569,-0.54925 0.45513,-1.0985 0.689591,-1.66439 0.227569,0 0.45513,0 0.689591,0 0.08533,-0.23815 0.170676,-0.47629 0.258591,-0.72166 0.478795,-1.04728 1.06702,-1.82086 1.810167,-2.71111 0.241795,-0.29393 0.483575,-0.58787 0.732682,-0.8907 0.320021,-0.33148 0.320021,-0.33148 0.646492,-0.66966 0.227569,0 0.455137,0 0.689591,0 0.03549,-0.19909 0.07114,-0.39819 0.107751,-0.60333 0.275447,-0.84613 0.624453,-1.11122 1.271424,-1.72679 0.45516,-0.60894 0.885377,-1.23015 1.315876,-1.85553 0.134668,-0.15661 0.269344,-0.31323 0.408102,-0.47461 0.227561,0 0.455121,0 0.689583,0 0.09244,-0.25401 0.184895,-0.50804 0.280144,-0.76977 0.395547,-0.86424 0.735782,-1.26909 1.443826,-1.89321 0.113784,-0.21971 0.227561,-0.43941 0.344796,-0.66576 0.227568,0 0.455129,0 0.689583,0 0.14334,-0.29286 0.14334,-0.29286 0.289575,-0.59163 1.197998,-2.2158 3.064178,-4.11504 4.701858,-6.03337 1.58252,-1.87548 3.12055,-3.785 4.6628,-5.69139 1.64585,0.25226 1.64585,0.25226 2.3489,0.97783 0.40945,0.68655 0.40945,0.68655 0.40945,1.3523 0.22756,0 0.45512,0 0.68959,0 0.0782,0.18537 0.15645,0.37074 0.23704,0.56172 0.43475,0.819 0.43475,0.819 1.22833,1.51875 1.13712,1.09781 2.14664,2.27042 3.01695,3.57842 0,0.21969 0,0.43938 0,0.66574 0.34135,0.10985 0.6827,0.2197 1.03439,0.33287 0.11492,0.44385 0.22985,0.88768 0.34478,1.33151 0.34135,0.10985 0.6827,0.2197 1.03439,0.33288 0.70441,0.81007 0.70441,0.81007 1.44383,1.81 0.24667,0.32912 0.49334,0.65824 0.7475,0.99733 0.56701,0.85429 0.56701,0.85429 0.56701,1.52004 0.20447,0.0823 0.40891,0.16478 0.61957,0.24966 0.8797,0.48187 1.28259,0.9634 1.88019,1.7476 1.1372,1.4694 2.324,2.89024 3.5328,4.30527 0.51853,0.68784 0.51853,0.68784 0.51853,1.35361 0.34136,0.10984 0.6827,0.2197 1.03439,0.33287 0.23704,0.68655 0.23704,0.68655 0.34479,1.3315 0.22757,0 0.45513,0 0.68959,0 0.51989,0.55913 0.51989,0.55913 1.07748,1.28989 0.18578,0.23944 0.37158,0.47886 0.56298,0.72558 0.42831,0.64754 0.42831,0.64754 0.42831,1.31328 0.22756,0 0.45513,0 0.68959,0 0.0853,0.19224 0.17067,0.38448 0.25859,0.58254 0.49291,0.85656 1.09163,1.38928 1.81016,2.08046 0.44003,0.506 0.87123,1.01928 1.29298,1.53955 0.31735,0.38747 0.31735,0.38747 0.64111,0.78278 0.47948,0.67356 0.47948,0.67356 0.47948,1.3393 0.34134,0.10986 0.68269,0.21971 1.03438,0.33289 0.11493,0.44382 0.22986,0.88766 0.34479,1.33149 0.34135,0.10985 0.68269,0.21971 1.03439,0.33288 0.49563,0.52402 0.49563,0.52402 1.03437,1.22748 0.92027,1.18083 1.84998,2.35158 2.79902,3.51088 0.79418,0.97016 1.58371,1.94382 2.3729,2.91777 0.23201,0.28621 0.46401,0.57242 0.70305,0.8673 1.36571,1.71529 1.36571,1.71529 1.36571,2.46145 0.34134,0.10985 0.68269,0.2197 1.03438,0.33288 0.47018,0.65892 0.92894,1.32548 1.37918,1.99725 0.21333,0.2034 0.42668,0.40678 0.64649,0.61634 0.81936,0.79977 1.46163,1.6483 2.1334,2.56678 0.74625,1.01915 1.46796,1.93945 2.39202,2.80863 1.05513,1.20423 2.07824,2.43338 3.10314,3.66164 0.36601,0.43703 0.36601,0.43703 0.73942,0.8829 0.21823,0.26474 0.43646,0.52951 0.66131,0.80228 0.19601,0.23729 0.392,0.47457 0.59396,0.71906 0.41887,0.59163 0.41887,0.59163 0.41887,1.25738 0.22757,0 0.45513,0 0.68959,0 0.58087,0.65374 1.12234,1.3109 1.65932,1.99725 0.34299,0.43031 0.68646,0.86026 1.03034,1.28989 0.18029,0.2257 0.36058,0.45142 0.54632,0.68397 0.91434,1.13177 1.8564,2.24139 2.7979,3.35214 1.56057,1.84602 3.09981,3.70616 4.62013,5.58314 1.67693,2.06913 3.37906,4.11858 5.08176,6.16796 0.67445,0.81199 1.34779,1.62486 2.02111,2.43772 0.20268,0.24459 0.40536,0.48917 0.61417,0.74117 0.29335,0.354 0.29335,0.354 0.59261,0.71515 0.25246,0.29093 0.50491,0.58187 0.76502,0.8816 0.61416,0.78278 0.61416,0.78278 0.61416,1.44853 0.22756,0 0.45514,0 0.68959,0 0.43853,0.5317 0.85061,1.08381 1.24987,1.64358 1.12239,1.53117 2.31457,2.92554 3.6217,4.31048 0.78683,0.85796 1.49124,1.75704 2.18997,2.6825 0.79717,1.04066 1.64173,2.0449 2.48225,3.0531 0.45524,0.62673 0.45524,0.62673 0.45524,1.29249 0.34134,0.10984 0.68269,0.2197 1.03438,0.33287 0.52698,0.59813 1.02522,1.22001 1.50847,1.85162 0.30591,0.39451 0.61257,0.78847 0.91989,1.18197 0.16375,0.20967 0.32747,0.41933 0.49616,0.63535 0.91783,1.1546 1.87429,2.2786 2.82922,3.40467 1.55673,1.83918 3.09647,3.68798 4.59007,5.57565 1.26762,-1.1779 2.37684,-2.41722 3.44795,-3.76565 1.43592,-1.78644 2.89418,-3.55291 4.37457,-5.30521 1.40277,-1.66125 2.79908,-3.32675 4.18197,-5.00351 0.63129,-0.75885 1.26668,-1.514 1.90445,-2.26773 0.20423,-0.24158 0.40846,-0.48315 0.61888,-0.73207 0.40888,-0.48327 0.81831,-0.96613 1.22833,-1.44853 0.18689,-0.22098 0.37379,-0.44196 0.56635,-0.66964 0.25264,-0.29769 0.25264,-0.29769 0.51037,-0.60138 0.43528,-0.51392 0.43528,-0.51392 0.75163,-1.17743 -0.22757,0 -0.45513,0 -0.68959,0 -0.33535,-0.46888 -0.66798,-0.93996 -0.98185,-1.42252 -0.41029,-0.59348 -0.86087,-1.11842 -1.3455,-1.65657 -0.77579,-0.9154 -0.77579,-0.9154 -0.77579,-1.58116 -0.22758,0 -0.45514,0 -0.6896,0 -0.22757,-0.54924 -0.45512,-1.09849 -0.68958,-1.66438 -0.22757,0 -0.45513,0 -0.68959,0 -0.59576,-0.66746 -1.15168,-1.33783 -1.70243,-2.03886 -0.3452,-0.43172 -0.69044,-0.86341 -1.03572,-1.29509 -0.26409,-0.33245 -0.26409,-0.33245 -0.53352,-0.67159 -0.78482,-0.98611 -1.57874,-1.9652 -2.37433,-2.94322 -0.15442,-0.19015 -0.30885,-0.38029 -0.46795,-0.57621 -1.40787,-1.72842 -2.84576,-3.43268 -4.28551,-5.13639 -1.36686,-1.62003 -2.71121,-3.2556 -4.04426,-4.90162 -2.06217,-2.54474 -4.16101,-5.06128 -6.25605,-7.5808 -0.64978,-0.78696 -1.29424,-1.5778 -1.93701,-2.37011 -2.05205,-2.52936 -4.12639,-5.041 -6.20876,-7.54717 -0.63666,-0.76698 -1.27103,-1.53568 -1.90579,-2.30413 -1.16965,-1.41152 -2.35413,-2.81091 -3.54088,-4.20905 -2.60775,-3.07328 -5.20543,-6.1527 -7.74018,-9.28255 -1.32124,-1.63061 -2.66021,-3.24706 -4.00217,-4.8618 -1.17893,-1.42023 -2.34635,-2.8487 -3.50805,-4.28211 -1.35698,-1.6738 -2.74002,-3.32409 -4.14021,-4.96453 -0.89776,-1.06651 -1.77318,-2.14841 -2.64791,-3.23253 -1.25109,-1.54915 -2.53339,-3.06467 -3.85738,-4.55623 -1.70288,-1.92071 -3.30066,-3.90609 -4.88554,-5.91797 -2.51273,-3.17409 -5.11462,-6.27973 -7.73042,-9.3748 -0.16795,-0.19957 -0.3359,-0.39916 -0.50894,-0.60479 -0.42697,-0.50466 -0.85973,-1.00476 -1.29315,-1.50428 -0.55894,-0.71906 -0.55894,-0.71906 -0.55894,-1.38481 -0.22756,0 -0.45513,0 -0.68959,0 -0.22756,-0.54925 -0.45513,-1.0985 -0.68958,-1.66438 -0.22757,0 -0.45514,0 -0.68959,0 -0.43504,-0.4772 -0.43504,-0.4772 -0.92664,-1.14426 -0.99375,-1.32894 -2.03603,-2.61112 -3.10045,-3.88787 -0.45524,-0.62674 -0.45524,-0.62674 -0.45524,-1.29249 -0.22757,0 -0.45513,0 -0.68958,0 -0.43772,-0.46812 -0.43772,-0.46812 -0.96975,-1.16507 -1.16638,-1.49129 -2.37348,-2.94366 -3.59878,-4.38979 -1.58267,-1.8728 -3.14286,-3.76024 -4.68324,-5.66556 -1.21381,-1.49735 -2.45335,-2.97324 -3.69956,-4.44554 -1.68057,-1.98547 -3.31236,-4.00037 -4.92004,-6.04116 -0.64286,-0.79844 -1.30449,-1.5645 -1.99739,-2.32233 -0.81889,-0.93622 -0.81889,-0.93622 -0.81889,-1.60196 -0.22756,0 -0.45512,0 -0.68958,0 -0.47422,-0.65621 -0.93167,-1.32378 -1.37918,-1.99725 -0.69356,-0.93473 -0.69356,-0.93473 -1.37917,-1.66437 -0.22757,0 -0.45513,0 -0.68959,0 -0.58771,0.59981 -0.58771,0.59981 -1.20678,1.3939 -0.24757,0.30595 -0.49513,0.6119 -0.7502,0.92712 -0.95049,1.19523 -1.89903,2.39191 -2.84716,3.58889 -2.17742,2.73632 -4.456293,5.39558 -6.726264,8.06045 -1.542023,1.81097 -3.053328,3.64169 -4.548475,5.48869 -1.231077,1.51694 -2.484657,3.01504 -3.74678,4.50797 -1.55273,1.83685 -3.08308,3.68822 -4.593603,5.55754 -1.429895,1.76465 -2.895046,3.50094 -4.370365,5.23035 -0.879762,1.03691 -1.717183,2.07834 -2.503125,3.18376 -0.255125,0.33256 -0.510251,0.66511 -0.773098,1.00773 -0.227561,0 -0.455122,0 -0.689591,0 -0.08889,0.24158 -0.177782,0.48316 -0.269367,0.73207 -0.438289,0.97242 -0.951253,1.70084 -1.626997,2.53427 -0.209785,0.26305 -0.41957,0.52608 -0.635708,0.79708 -0.188452,0.19696 -0.376903,0.39392 -0.571063,0.59684 -0.227561,0 -0.45513,0 -0.689591,0 -0.227561,0.54924 -0.455122,1.09848 -0.689591,1.66438 -0.227561,0 -0.455122,0 -0.689584,0 -0.116672,0.26197 -0.116672,0.26197 -0.235692,0.52922 -0.61465,1.08641 -1.401389,2.02319 -2.199414,2.98677 -0.169788,0.20683 -0.339567,0.41365 -0.514507,0.62674 -1.264425,1.53617 -2.550973,3.0543 -3.842559,4.56924 -1.051357,1.24766 -2.077924,2.51327 -3.10449,3.77995 -1.344937,1.65816 -2.706525,3.303 -4.071693,4.94568 -1.179034,1.42036 -2.346577,2.84896 -3.508374,4.28251 -1.112323,1.37202 -2.23628,2.73239 -3.383303,4.07772 -1.159244,1.36057 -2.298911,2.73421 -3.42635,4.11934 -0.23665,0.29036 -0.23665,0.29036 -0.478065,0.58659 -0.818035,1.00733 -1.626511,2.02057 -2.423099,3.04383 -0.23567,0.3013 -0.23567,0.3013 -0.476196,0.6087 -0.300169,0.38468 -0.598522,0.77071 -0.894816,1.15824 -0.348474,0.44604 -0.719177,0.8758 -1.093718,1.30175 -0.227569,0 -0.455138,0 -0.689576,0 -0.08532,0.24373 -0.170677,0.48746 -0.258591,0.73857 -0.47438,1.01896 -1.011351,1.61948 -1.810152,2.42375 -1.355836,1.41317 -2.585385,2.87899 -3.788807,4.41457 -1.169656,1.48735 -2.378283,2.94025 -3.602725,4.38581 -1.56049,1.84341 -3.098349,3.70119 -4.615095,5.57826 -1.429971,1.76468 -2.895077,3.501 -4.37045,5.23044 -0.879745,1.03692 -1.717175,2.07835 -2.503109,3.18378 -0.382688,0.49882 -0.382688,0.49882 -0.773075,1.00772 -0.227576,0 -0.455145,0 -0.689583,0 -0.0889,0.24158 -0.177798,0.48316 -0.269398,0.73207 -0.438303,0.97241 -0.95126,1.70083 -1.627004,2.53428 -0.20974,0.26303 -0.419547,0.52607 -0.635678,0.79707 -0.188444,0.19696 -0.376943,0.39392 -0.571079,0.59684 -0.227568,0 -0.455138,0 -0.689585,0 -0.08442,0.24158 -0.168905,0.48316 -0.255946,0.73206 -0.482078,1.03646 -1.058758,1.70259 -1.85594,2.53428 -0.249805,0.26303 -0.499558,0.52608 -0.756926,0.79707 -0.191096,0.19695 -0.382239,0.39392 -0.579135,0.59684 -0.6734345,-0.21585 -0.6734345,-0.21585 -1.3791595,-0.66574 -0.210142,-0.866 -0.210142,-0.866 -0.258591,-1.87244 -0.01961,-0.33383 -0.03929,-0.66768 -0.05935,-1.01162 -0.0088,-0.2566 -0.01763,-0.51319 -0.02698,-0.77758 -0.227569,0 -0.455137,0 -0.689583,0 -0.67902,-3.06857 -1.23813,-6.13652 -1.692728,-9.24346 -0.195763,-1.32053 -0.418422,-2.62206 -0.713043,-3.92559 -1.446707,-6.94987 -1.162489,-14.31561 -1.151006,-21.37854 0,-1.056 0,-2.11187 -0.0076,-3.16785 -0.03435,-5.79144 0.08001,-11.53023 0.618305,-17.30131 0.02303,-0.24829 0.04613,-0.49659 0.06984,-0.7524 0.387492,-4.07636 0.387492,-4.07636 0.806894,-4.48129 0.09415,-0.48285 0.169202,-0.9692 0.235716,-1.45632 0.06368,-0.4512 0.06368,-0.4512 0.128611,-0.9115 0.04324,-0.31711 0.08669,-0.63421 0.131309,-0.96093 0.308021,-2.24976 0.688794,-4.44859 1.228312,-6.6575 0.117219,-0.55435 0.233458,-1.1089 0.344833,-1.66438 0.22753,0 0.455099,0 0.689584,0 -0.02159,-0.48401 -0.02159,-0.48401 -0.04325,-0.97781 0,-2.21658 0.702982,-4.26221 1.4222575,-6.34544 0.248332,-0.99498 0.47286,-1.9941 0.689577,-2.99588 0.227568,0 0.455137,0 0.689583,0 0.02159,-0.33642 0.04271,-0.67282 0.06467,-1.01943 0.471142,-3.58811 2.155623,-7.09273 3.566497,-10.42316 0.47482,-1.13137 0.924462,-2.26905 1.368405,-3.41197 1.083269,-2.73392 2.362778,-5.37663 3.728038,-7.98901 0.594601,-1.08178 0.594601,-1.08178 0.926674,-2.12208 0.227576,0 0.455092,0 0.689584,0 0.04978,-0.25402 0.09955,-0.50806 0.150849,-0.76977 0.193939,-0.89461 0.193939,-0.89461 0.538726,-1.89324 0.227577,0 0.455145,0 0.689584,0 0.227569,-0.76894 0.455137,-1.53787 0.689577,-2.33012 0.227576,0 0.455144,0 0.689628,0 0.03579,-0.23988 0.07197,-0.47974 0.109072,-0.72686 0.259336,-1.03158 0.662635,-1.72786 1.248542,-2.62271 0.633276,-0.97491 1.231161,-1.93636 1.7455,-2.97506 0.227569,0 0.455137,0 0.689584,0 0.0885,-0.29007 0.176907,-0.58014 0.268068,-0.879 0.429213,-1.13866 0.958912,-2.02399 1.649872,-3.03229 0.815337,-1.17877 0.815337,-1.17877 1.529999,-2.41335 0.227576,0 0.455145,0 0.689584,0 0.08051,-0.22827 0.160956,-0.45655 0.243816,-0.69175 0.542413,-1.18336 1.273872,-2.18148 2.06201,-3.21953 0.154382,-0.20558 0.308764,-0.41118 0.467806,-0.623 1.794291,-2.37902 3.641401,-4.68507 5.680596,-6.87449 0.572797,-0.62159 0.572797,-0.62159 1.200039,-1.57335 0.227568,0 0.45513,0 0.689576,0 0.06399,-0.22657 0.128026,-0.45313 0.193946,-0.68656 0.575997,-1.13633 1.280294,-1.77024 2.22096,-2.6331 0.765809,-0.7509 1.420981,-1.54776 2.088958,-2.38083 0.757769,-0.93455 1.470121,-1.78033 2.435137,-2.51737 0.808072,-0.62751 1.37469,-1.17448 2.025636,-1.93484 0.656054,-0.76601 1.307539,-1.41843 2.111887,-2.03886 0.995005,-0.73604 0.995005,-0.73604 1.643154,-1.59416 0.71711,-0.84873 1.422402,-1.44713 2.321983,-2.10908 1.611188,-1.20933 3.111793,-2.50229 4.600807,-3.84887 0.700368,-0.56173 0.700368,-0.56173 1.389959,-0.56173 0,-0.21969 0,-0.43939 0,-0.66575 0.199115,-0.0824 0.39823,-0.164771 0.603386,-0.249651 0.804394,-0.386565 0.804394,-0.386565 1.422265,-1.040236 0.859356,-0.829646 1.764895,-1.429719 2.801456,-2.038863 0.227569,0 0.455129,0 0.68959,0 0.113784,-0.329547 0.227569,-0.659094 0.344796,-0.998625 0.711137,-0.228853 0.711137,-0.228853 1.379174,-0.332878 0,-0.219696 0,-0.439392 0,-0.665749 1.72856,-1.251611 1.72856,-1.251611 2.866098,-1.518744 0.288017,-0.07209 0.288017,-0.07209 0.581841,-0.145635 0.113784,-0.329542 0.227561,-0.659089 0.344796,-0.998626 0.341344,-0.109846 0.68269,-0.219697 1.034386,-0.332871 0.34576,-0.33194 0.69042,-0.66495 1.034379,-0.998626 0.537511,-0.332049 1.084454,-0.650111 1.637773,-0.95702 1.08855,-0.613418 2.120543,-1.241368 3.124705,-1.976443 1.016641,-0.673588 1.613879,-0.954922 2.822993,-1.06104 0,-0.219703 0,-0.439398 0,-0.665755 1.579688,-0.79738 3.112682,-1.500702 4.827114,-1.997251 0,-0.219697 0,-0.439392 0,-0.665749 0.910259,-0.219702 1.82051,-0.439397 2.758357,-0.665754 0,-0.219696 0,-0.439392 0,-0.665748 1.068737,-0.502463 2.13958,-1.000594 3.210886,-1.497942 0.303787,-0.142887 0.607582,-0.285779 0.920572,-0.432996 0.292236,-0.135163 0.584471,-0.270332 0.885552,-0.40959 0.403565,-0.188271 0.403565,-0.188271 0.815277,-0.380337 0.718797,-0.275013 0.718797,-0.275013 1.753176,-0.275013 0,-0.219696 0,-0.439398 0,-0.665748 1.149316,-0.443833 2.298626,-0.887671 3.447936,-1.331504 0.29379,-0.124441 0.58758,-0.248878 0.89027,-0.377087 0.8337,-0.288666 0.8337,-0.288666 2.21288,-0.288666 0,-0.219697 0,-0.439393 0,-0.665749 0.30601,-0.09655 0.30601,-0.09655 0.6182,-0.195045 1.74458,-0.554201 1.74458,-0.554201 3.45468,-1.198872 0.75423,-0.270457 0.75423,-0.270457 2.13341,-0.270457 0,-0.219702 0,-0.439399 0,-0.665755 0.23779,-0.06051 0.47557,-0.121003 0.72057,-0.183341 1.85992,-0.480308 3.68582,-0.993893 5.49515,-1.630568 0.68016,-0.183342 0.68016,-0.183342 2.05933,-0.183342 0,-0.219696 0,-0.439392 0,-0.665748 0.53829,-0.11302 1.07714,-0.223469 1.61623,-0.332878 0.30001,-0.0618 0.60002,-0.123578 0.90912,-0.187241 0.90091,-0.142209 1.73566,-0.170982 2.64656,-0.14563 0,-0.219702 0,-0.439398 0,-0.665754 1.85509,-0.396418 3.6041,-0.762935 5.51671,-0.665748 0,-0.219696 0,-0.439399 0,-0.665755 0.29557,-0.04031 0.59114,-0.08067 0.89566,-0.122228 2.48724,-0.328892 2.48724,-0.328892 4.92273,-0.897201 2.30624,-0.667956 4.5544,-0.686637 6.93898,-0.644945 0,-0.219696 0,-0.439393 0,-0.665749 8.05669,-0.820057 16.07951,-1.10169 24.17867,-1.102651 z"
     fill="#137b98"
     id="path1"
     style="stroke-width:0.338782" />
  <path
     d="m 328.25892,86.698771 c 0.22757,0.219696 0.45514,0.439397 0.68958,0.665748 -2.84456,2.746221 -5.68908,5.492445 -8.61985,8.321883 0,-1.389482 0.76788,-2.043739 1.72395,-2.995877 0.33425,-0.267755 0.66849,-0.535509 1.01288,-0.811384 1.0133,-0.818563 1.78752,-1.65982 2.62368,-2.636993 0.66448,-0.724349 1.43334,-1.28804 2.22497,-1.877629 0.11379,-0.219696 0.22757,-0.439392 0.34479,-0.665748 z"
     fill="#0d658b"
     id="path37"
     style="stroke-width:0.338782" />
</svg>
