<?xml version="1.0" encoding="UTF-8" standalone="no"?>
<svg
   viewBox="0 0 2079.95 456.05"
   version="1.1"
   xmlns="http://www.w3.org/2000/svg"
 >
  <path
     d="m 225.84954,18.586184 c 0.5744,-0.0015 1.14879,-0.0023 1.74059,-0.0046 9.68341,-0.01472 19.44156,0.22336 29.05348,1.473989 0.14973,0.146405 0.29943,0.292818 0.4537,0.443661 0.76708,0.12669 1.53854,0.228366 2.31097,0.31889 0.46728,0.05664 0.93456,0.113236 1.416,0.171571 0.73777,0.08664 0.73777,0.08664 1.49044,0.175045 0.96901,0.113803 1.93785,0.229247 2.90644,0.346615 0.43189,0.05059 0.86379,0.101225 1.30878,0.153374 1.00219,0.165507 1.00219,0.165507 1.45587,0.609178 0.84761,0.155573 1.69915,0.290733 2.552,0.415936 2.08326,0.324331 4.0442,0.772309 6.06807,1.358736 1.50804,0.318038 3.02109,0.606977 4.53688,0.887332 0,0.292818 0,0.585644 0,0.88734 0.28014,0.01656 0.56027,0.03319 0.8489,0.05029 2.35679,0.178908 4.42216,0.542595 6.64228,1.32927 3.34495,1.170806 6.78108,2.12338 10.20265,3.057143 0,0.292826 0,0.585644 0,0.88734 0.42108,0.03656 0.84216,0.0732 1.276,0.110913 2.41037,0.324954 4.63455,1.249747 6.89039,2.107422 0,0.292818 0,0.585644 0,0.887332 0.42107,0.06409 0.84216,0.128115 1.276,0.194108 1.44612,0.249562 1.44612,0.249562 2.80719,0.693231 0,0.292819 0,0.585638 0,0.887333 0.44915,0.03664 0.8983,0.0732 1.36106,0.110921 1.31723,0.183468 2.32149,0.521951 3.49659,1.128232 1.29276,0.652749 2.58994,1.282709 3.90952,1.882121 0.32605,0.148413 0.65208,0.29682 0.98801,0.449733 0.66609,0.302109 1.33244,0.603659 1.99905,0.904664 1.74201,0.794157 3.39291,1.63732 5.03222,2.623009 0.79939,0.405135 1.60277,0.802819 2.41022,1.192354 0.40062,0.193879 0.80123,0.387758 1.21398,0.587515 0.30118,0.144696 0.60237,0.289385 0.91268,0.438466 0,0.292826 0,0.585644 0,0.88734 0.58425,0.171571 0.58425,0.171571 1.18031,0.346615 1.59952,0.560954 2.96712,1.257612 4.43409,2.093554 0.48073,0.269944 0.96146,0.539889 1.45676,0.818012 0.36143,0.242493 0.72284,0.48498 1.09523,0.734825 0,0.292819 0,0.585637 0,0.887332 0.35558,0.08236 0.71116,0.164711 1.07751,0.249569 1.96665,0.762651 3.49339,1.838404 5.19614,3.051947 0.94193,0.699493 0.94193,0.699493 1.89274,1.135161 0,0.292818 0,0.585644 0,0.887332 0.48686,0.17158 0.48686,0.17158 0.98357,0.346615 1.36272,0.573487 2.48036,1.262909 3.69508,2.093562 0.40061,0.269945 0.80123,0.539889 1.21396,0.818012 0.3012,0.242486 0.60239,0.48498 0.9127,0.734825 0,0.292818 0,0.585637 0,0.887332 1.12288,0.439232 1.12288,0.439232 2.26844,0.887333 0,0.292826 0,0.585644 0,0.887339 0.48687,0.164711 0.48687,0.164711 0.98358,0.332749 1.42737,0.616093 2.48174,1.372994 3.69508,2.329256 0.40061,0.311123 0.80122,0.62224 1.21397,0.942792 0.30119,0.274521 0.60238,0.549034 0.91269,0.831872 0,0.292826 0,0.585645 0,0.88734 0.26201,0.03664 0.52401,0.0732 0.79395,0.110914 1.31749,0.429465 1.94515,1.081195 2.83556,2.10742 0,0.292827 0,0.585645 0,0.88734 0.36493,0.118955 0.72987,0.237917 1.10585,0.360475 0.38365,0.173864 0.76731,0.347727 1.16258,0.526857 0.14972,0.439232 0.29943,0.878464 0.45369,1.331003 0.25192,0.120671 0.50384,0.241344 0.76339,0.365679 1.52687,0.757577 2.61527,1.924543 3.80894,3.10047 0.38887,0.379026 0.38887,0.379026 0.78561,0.765694 0.54561,0.532951 1.09007,1.067022 1.63347,1.60212 0.8349,0.821232 1.67455,1.637595 2.51477,2.453607 0.5296,0.518487 1.05891,1.037241 1.58791,1.556302 0.25233,0.244955 0.50466,0.489916 0.76463,0.742299 1.75192,1.734504 1.75192,1.734504 1.75192,2.72385 0.29943,0 0.59887,0 0.90738,0 0,0.439232 0,0.878464 0,1.331002 0.59887,0.292826 1.19774,0.585645 1.81475,0.887341 0,0.292818 0,0.585636 0,0.887332 0.262,0.09151 0.52401,0.183016 0.79396,0.277295 1.39307,0.832516 1.96154,1.93657 2.83554,3.27204 0.60243,0.59399 1.20759,1.18531 1.81475,1.77467 0.579,0.6744 1.14637,1.35852 1.70134,2.05197 0.27837,0.34429 0.55675,0.68859 0.84357,1.0433 0.63091,0.89774 0.63091,0.89774 0.63091,1.785068 0.44915,0.14641 0.8983,0.29282 1.36106,0.44368 0.31192,0.91505 0.31192,0.91505 0.45369,1.77466 0.29944,0 0.59887,0 0.90738,0 0.58483,0.63257 0.58483,0.63257 1.19093,1.46965 0.20235,0.27281 0.4047,0.54561 0.61319,0.82667 0.46432,0.80936 0.46432,0.80936 0.46432,2.14036 0.44915,0.14641 0.8983,0.29282 1.36106,0.44366 0.31191,0.91506 0.31191,0.91506 0.45369,1.77466 0.29943,0 0.59887,0 0.90738,0 0.55363,0.82973 1.06708,1.68528 1.55955,2.5511 1.10053,1.93878 1.10053,1.93878 2.39782,3.75037 0.57951,0.79722 0.57951,0.79722 0.57951,2.12822 0.29943,0 0.59886,0 0.90737,0 0.59822,0.99676 1.19318,1.99517 1.78639,2.99476 0.16932,0.28138 0.33863,0.56277 0.51306,0.85267 0.81075,1.3714 1.44296,2.59226 1.78374,4.13859 0.29943,0 0.59887,0 0.90738,0 1.20983,2.36622 2.41967,4.73245 3.62951,7.09868 0.16791,0.30097 0.33583,0.60194 0.50884,0.91203 0.39853,0.86264 0.39853,0.86264 0.39853,2.19364 0.29943,0 0.59886,0 0.90738,0 1.27728,2.2367 2.05014,4.09337 2.26843,6.65501 0.29944,0 0.59888,0 0.90738,0 0.45758,1.07074 0.91056,2.143 1.36107,3.21659 0.12983,0.30255 0.25966,0.60508 0.39343,0.9168 0.64708,1.55183 0.96763,2.59661 0.96763,4.29629 0.29943,0 0.59886,0 0.90737,0 1.91052,5.29544 3.78933,10.59883 5.58349,15.93315 0.22247,0.65529 0.44874,1.30934 0.67765,1.96249 0.60859,1.74464 1.15861,3.43706 1.47992,5.25826 0.22816,1.20228 0.47481,2.27729 0.87901,3.43843 0.54613,1.63555 0.82315,3.26589 1.10587,4.96179 0.24045,1.3102 0.24045,1.3102 0.68231,2.68973 0.60056,2.11731 0.98394,4.24239 1.35929,6.40719 0.0779,0.44609 0.15593,0.89218 0.23626,1.35179 0.51811,3.00193 1.0107,6.00715 1.46506,9.01894 0.0541,0.34864 0.10813,0.6973 0.16382,1.05653 0.91317,6.25545 1.01376,12.60048 1.16889,18.90851 0.0103,0.40462 0.0203,0.80923 0.0308,1.2261 0.27127,11.21666 0.32148,22.66216 -1.44864,33.76817 -0.11878,0.76592 -0.23693,1.53194 -0.35445,2.29806 -0.0561,0.36431 -0.11221,0.72862 -0.17003,1.10397 -0.20123,1.40562 -0.35299,2.81415 -0.49289,4.22675 -0.11686,0.85636 -0.11686,0.85636 -0.54218,2.29827 -0.44338,1.5303 -0.70279,2.97628 -0.93573,4.54761 -0.3082,2.06492 -0.74372,3.98967 -1.36108,5.98949 -0.15729,0.74751 -0.30807,1.49633 -0.45367,2.24608 -0.33071,1.6776 -0.79763,3.23404 -1.36108,4.85261 -0.14779,0.63646 -0.28902,1.27441 -0.42533,1.91332 -0.82897,3.76428 -2.29998,7.34684 -3.65785,10.95304 -0.74859,-0.14642 -1.49717,-0.29282 -2.26844,-0.44368 0,-0.29281 0,-0.58563 0,-0.88733 -0.29944,0 -0.59887,0 -0.90737,0 -0.1123,-0.25621 -0.22458,-0.51243 -0.34028,-0.77641 -0.53984,-1.05792 -0.53984,-1.05792 -1.5312,-1.94105 -0.28072,-0.27452 -0.56144,-0.54904 -0.85065,-0.83188 0,-0.29282 0,-0.58563 0,-0.88733 -0.29944,0 -0.59888,0 -0.90738,0 -0.58484,-0.64817 -0.58484,-0.64817 -1.19093,-1.49737 -0.30353,-0.41693 -0.30353,-0.41693 -0.61319,-0.84228 -0.46433,-0.76603 -0.46433,-0.76603 -0.46433,-1.65336 -0.44915,-0.14641 -0.89829,-0.29281 -1.36105,-0.44367 -0.15124,-0.59155 -0.30247,-1.18311 -0.4537,-1.77466 -0.44915,-0.14642 -0.89829,-0.29282 -1.36106,-0.44367 -0.75402,-0.86471 -1.44475,-1.71855 -2.12666,-2.63428 -0.18861,-0.24448 -0.37722,-0.48899 -0.57154,-0.74089 -1.38499,-1.83033 -1.38499,-1.83033 -1.38499,-2.83618 -0.44915,-0.1464 -0.8983,-0.29282 -1.36107,-0.44366 -0.71255,-0.83442 -1.38877,-1.6989 -2.04159,-2.57882 -0.3509,-0.46954 -0.70181,-0.93909 -1.06333,-1.42286 -0.32282,-0.43637 -0.64566,-0.87275 -0.97826,-1.32233 -0.26669,-0.33115 -0.53338,-0.66227 -0.80814,-1.00346 -0.55293,-0.77122 -0.55293,-0.77122 -0.55293,-1.65855 -0.44915,-0.14641 -0.8983,-0.29282 -1.36106,-0.44367 -0.6934,-0.79721 -1.34903,-1.62606 -1.98489,-2.4679 -0.40429,-0.52813 -0.80958,-1.05553 -1.21574,-1.58229 -0.32349,-0.41962 -0.32349,-0.41962 -0.6535,-0.8477 -1.17713,-1.49959 -2.40576,-2.95765 -3.63173,-4.41913 -1.80398,-2.15559 -3.57889,-4.32644 -5.30247,-6.54408 -1.8829,-2.42184 -3.85835,-4.74376 -5.88731,-7.04844 -0.83295,-1.0485 -0.83295,-1.0485 -0.83295,-1.93583 -0.29943,0 -0.59887,0 -0.90737,0 -0.12165,-0.26538 -0.24329,-0.53075 -0.36862,-0.80416 -0.54885,-0.98868 -1.08921,-1.51247 -1.89983,-2.30152 -0.64244,-0.74118 -1.27512,-1.49052 -1.89981,-2.24607 -0.48687,-0.58421 -0.48687,-0.58421 -0.98358,-1.18023 -0.74611,-1.01037 -0.74611,-1.01037 -0.74611,-1.8977 -0.29943,0 -0.59886,0 -0.90737,0 -0.39894,-0.57739 -0.79339,-1.15801 -1.17144,-1.74868 -1.17647,-1.67027 -2.55772,-3.18661 -3.89711,-4.73303 -0.8294,-1.06064 -0.8294,-1.06064 -0.8294,-1.94798 -0.44915,-0.14641 -0.8983,-0.29282 -1.36106,-0.44367 -0.68053,-0.75735 -0.68053,-0.75735 -1.36107,-1.69148 -0.22457,-0.30484 -0.44915,-0.60967 -0.68053,-0.92374 -0.22457,-0.30826 -0.44915,-0.61651 -0.68052,-0.93411 -0.25265,-0.31285 -0.50531,-0.62568 -0.76561,-0.94801 -0.59547,-0.82667 -0.59547,-0.82667 -0.59547,-1.714 -0.44914,-0.14642 -0.89829,-0.29282 -1.36105,-0.44367 -0.31192,-0.91507 -0.31192,-0.91507 -0.4537,-1.77467 -0.29943,0 -0.59886,0 -0.90738,0 -0.74014,-0.85445 -1.42331,-1.70513 -2.09829,-2.60655 -0.19066,-0.2465 -0.38132,-0.49299 -0.57775,-0.74695 -1.40714,-1.85412 -1.40714,-1.85412 -1.40714,-2.85784 -0.44916,-0.14642 -0.89831,-0.29282 -1.36106,-0.44367 -0.69341,-0.79722 -1.34902,-1.62607 -1.98489,-2.46791 -0.40489,-0.52869 -0.81078,-1.05667 -1.21751,-1.58402 -0.21574,-0.27982 -0.43146,-0.55963 -0.65373,-0.84792 -1.16797,-1.48894 -2.38551,-2.93782 -3.60137,-4.38944 -1.95051,-2.33778 -3.89481,-4.67986 -5.81288,-7.04322 -0.21137,-0.25761 -0.42276,-0.51523 -0.64055,-0.78065 -0.88754,-1.099 -1.51113,-1.95478 -1.96815,-3.29554 -0.29944,0 -0.59887,0 -0.90737,0 -0.73548,-0.81109 -0.73548,-0.81109 -1.55956,-1.88559 -0.27078,-0.35002 -0.54155,-0.70002 -0.82054,-1.06065 -0.26259,-0.34544 -0.52517,-0.69087 -0.79573,-1.04677 -0.25791,-0.31799 -0.51581,-0.63598 -0.78154,-0.9636 C 337.4,186.4309 337.4,186.4309 337.4,185.54356 c -0.29943,0 -0.59887,0 -0.90737,0 -0.8715,-0.97192 -1.68804,-1.94608 -2.49529,-2.96702 -0.22633,-0.27766 -0.45265,-0.55533 -0.68584,-0.8414 -0.97154,-1.21625 -1.74498,-2.24511 -2.33402,-3.68712 -0.12632,-0.30827 -0.25265,-0.61653 -0.3828,-0.93413 -0.44914,-0.14642 -0.8983,-0.29282 -1.36106,-0.44367 -0.74028,-0.8546 -1.42299,-1.70517 -2.09831,-2.60654 -0.40103,-0.52332 -0.80274,-1.04612 -1.2051,-1.56844 -0.30529,-0.3973 -0.30529,-0.3973 -0.61674,-0.80263 -1.50989,-1.93425 -3.1113,-3.79791 -4.69992,-5.67041 -1.63141,1.50152 -2.96549,3.08008 -4.28988,4.84525 -1.12,1.47444 -2.31607,2.88629 -3.50789,4.30539 -1.88551,2.25643 -3.75275,4.52418 -5.58603,6.82139 -1.78835,2.23989 -3.607,4.45331 -5.44426,6.65501 -1.89983,2.27798 -3.78519,4.56572 -5.64274,6.87685 -0.20523,0.25515 -0.41048,0.51029 -0.62194,0.77317 -1.12544,1.40544 -2.21847,2.82933 -3.29112,4.27355 -0.36494,0.45752 -0.72987,0.91507 -1.10586,1.38646 -0.29944,0 -0.59887,0 -0.90738,0 -0.29943,0.73205 -0.59887,1.4641 -0.90737,2.21833 -0.29944,0 -0.59887,0 -0.90738,0 -0.12165,0.25622 -0.24329,0.51244 -0.36862,0.77642 -0.55204,1.02288 -1.13006,1.89471 -1.89982,2.77293 -0.29943,0 -0.59887,0 -0.90737,0 -0.0375,0.24706 -0.0748,0.49413 -0.11343,0.74869 -0.447,1.34779 -1.23154,2.15423 -2.15502,3.24432 -0.29533,0.35172 -0.59068,0.70345 -0.89497,1.06583 -0.31288,0.37118 -0.62577,0.74235 -0.94813,1.12477 -1.21708,1.44721 -2.41469,2.90332 -3.58343,4.38815 -0.22454,0.28428 -0.44908,0.56855 -0.68042,0.86145 -0.44228,0.56166 -0.88222,1.1251 -1.31963,1.69039 -0.52832,0.66984 -1.0854,1.31781 -1.64717,1.96109 -0.29945,0 -0.59887,0 -0.90738,0 -0.11463,0.32485 -0.22926,0.6497 -0.34736,0.98438 -0.76123,1.6773 -1.91923,2.8564 -3.16164,4.21485 -0.7119,0.98914 -0.7119,0.98914 -0.31546,2.11608 0.67786,1.16458 1.42146,2.16083 2.29327,3.19406 1.53119,1.81825 1.53119,1.81825 1.53119,2.80065 0.44915,0.14642 0.8983,0.29282 1.36106,0.44368 0.68408,0.72961 0.68408,0.72961 1.41778,1.69147 0.27487,0.3563 0.54974,0.71261 0.83294,1.07971 0.30529,0.4032 0.61056,0.8064 0.9251,1.22182 0.53769,0.70662 1.0754,1.41323 1.61427,2.11901 0.52004,0.68221 1.03731,1.36645 1.55446,2.05078 0.72214,0.91148 1.42632,1.69411 2.27552,2.48522 2.26845,2.39955 2.26845,2.39955 2.26845,3.99301 0.27135,0.10066 0.54272,0.20131 0.82231,0.30502 1.261,0.73989 1.62938,1.56143 2.3535,2.80065 0.3275,0.32027 0.65501,0.64054 0.99244,0.97052 0.27136,0.26536 0.54272,0.53075 0.82231,0.80416 0,0.29281 0,0.58563 0,0.88733 0.88469,-0.0864 0.88469,-0.0864 1.81476,-0.44368 0.47646,-0.82065 0.47646,-0.82065 0.90737,-1.77466 0.601,-0.59536 1.2066,-1.18629 1.81475,-1.77467 2.37041,-2.70139 4.59389,-5.5166 6.80034,-8.34649 1.7838,-2.27754 3.63438,-4.49924 5.49022,-6.72077 1.68884,-2.02417 3.35714,-4.06265 5.0063,-6.11786 0.30566,-0.38084 0.30566,-0.38084 0.61751,-0.76938 0.80704,-1.00861 1.60322,-2.01608 2.35627,-3.06419 0.19767,-0.23563 0.39535,-0.47126 0.59901,-0.71403 0.29944,0 0.59887,0 0.90737,0 0.10293,-0.31112 0.20587,-0.62224 0.31191,-0.94279 0.76134,-1.63085 1.57857,-2.65067 2.86391,-3.93755 0.59887,0 1.19774,0 1.81475,0 0.92333,1.02078 0.92333,1.02078 1.84311,2.35698 1.18231,1.73197 1.18231,1.73197 2.57858,3.29112 0.56888,0.56324 0.56888,0.56324 0.56888,1.45058 0.44915,0.14641 0.8983,0.29282 1.36107,0.44367 0.79572,0.85441 0.79572,0.85441 1.61626,1.91331 0.27194,0.34601 0.5439,0.69203 0.82408,1.04852 0.65228,0.91455 1.13584,1.81213 1.64285,2.80584 0.31814,0.31113 0.63629,0.62225 0.96408,0.9428 0.85067,0.83188 0.85067,0.83188 0.85067,1.71921 0.29943,0 0.59886,0 0.90737,0 0.74015,0.85445 1.42333,1.70514 2.09831,2.60655 0.19066,0.24649 0.38131,0.49299 0.57775,0.74695 1.40713,1.85411 1.40713,1.85411 1.40713,2.85785 0.44915,0.14641 0.89831,0.29281 1.36107,0.44367 0.68407,0.72961 0.68407,0.72961 1.41777,1.69148 0.27487,0.3563 0.54975,0.71261 0.83294,1.0797 0.30529,0.40321 0.61058,0.8064 0.9251,1.22182 0.5377,0.70663 1.07541,1.41324 1.61427,2.11901 0.52005,0.68221 1.03731,1.36645 1.55446,2.05078 0.72507,0.91517 1.43641,1.67948 2.27553,2.48522 0.67824,0.78908 1.34862,1.58463 2.01325,2.38472 0.34562,0.41521 0.69126,0.83042 1.04736,1.25821 0.33747,0.40834 0.67491,0.81669 1.02258,1.23741 0.34213,0.3992 0.68425,0.7984 1.03675,1.20968 0.778,1.00866 0.778,1.00866 0.778,1.896 0.29943,0 0.59888,0 0.90738,0 0.14972,0.58564 0.29943,1.17127 0.45369,1.77467 0.29943,0 0.59886,0 0.90738,0 0.62382,0.6707 0.62382,0.6707 1.36106,1.63602 0.28306,0.36545 0.56611,0.73091 0.85774,1.10744 0.31582,0.41235 0.63163,0.8247 0.95701,1.24955 2.46537,3.18586 4.97505,6.30673 7.6325,9.34182 2.16578,2.4832 4.21766,5.04887 6.26569,7.62521 2.8455,3.57927 5.71759,7.13517 8.64443,10.65127 0.2483,0.29853 0.49659,0.59707 0.75241,0.90466 1.09433,1.31492 2.19053,2.6282 3.29179,3.93755 0.33101,0.39691 0.66203,0.79382 1.00307,1.20275 0.28365,0.33743 0.5673,0.67486 0.85954,1.02252 0.5866,0.80762 0.5866,0.80762 0.5866,1.69495 0.29943,0 0.59887,0 0.90738,0 0.56848,0.68925 1.10083,1.4071 1.61626,2.13515 1.91729,2.64321 3.97907,5.1344 6.09643,7.62553 0.64351,0.76655 1.28622,1.53374 1.92818,2.30153 0.33569,0.40148 0.67138,0.80297 1.01725,1.21662 0.37546,0.44953 0.75092,0.89905 1.13776,1.36219 0.22239,0.26609 0.44477,0.53217 0.67389,0.80632 1.49645,1.79161 2.98656,3.58807 4.47264,5.38792 0.74553,0.89736 1.49924,1.78764 2.25426,2.67738 0.46335,0.55499 0.9265,1.11014 1.38942,1.66548 0.21894,0.25383 0.4379,0.50765 0.66347,0.76917 1.44796,1.75587 1.44796,1.75587 1.38344,2.97428 -0.19914,0.39806 -0.19914,0.39806 -0.4023,0.80415 -0.3509,0.71375 -0.3509,0.71375 -0.70888,1.44192 -0.21522,0.40263 -0.43044,0.80525 -0.65217,1.22009 -0.29944,0 -0.59888,0 -0.90738,0 -0.29944,1.02487 -0.59888,2.04973 -0.90738,3.10566 -0.29944,0 -0.59887,0 -0.90737,0 -0.1123,0.38433 -0.22458,0.76866 -0.34027,1.16464 -0.6025,1.59081 -1.33217,2.81209 -2.38186,4.15938 -0.29944,0 -0.59887,0 -0.90738,0 -0.11228,0.30196 -0.22458,0.60394 -0.34026,0.91506 -0.6769,1.55557 -1.50551,2.95203 -2.38187,4.40895 -0.29943,0 -0.59887,0 -0.90737,0 -0.10352,0.22705 -0.20703,0.4541 -0.31369,0.68803 -0.82539,1.51072 -1.82147,2.87985 -2.83377,4.2755 -0.20089,0.28453 -0.40179,0.56905 -0.60876,0.8622 -1.52728,2.10787 -1.52728,2.10787 -3.0491,2.60396 -0.15597,0.59036 -0.30618,1.1822 -0.45369,1.77466 -1.72607,2.42543 -3.73492,4.6002 -5.89795,6.65502 -0.25264,0.33856 -0.50529,0.67714 -0.7656,1.02598 -0.29476,0.37059 -0.29476,0.37059 -0.59546,0.74868 -0.29943,0 -0.59887,0 -0.90738,0 -0.12164,0.26537 -0.24328,0.53074 -0.36862,0.80415 -0.53838,0.96985 -1.03599,1.59757 -1.89981,2.30153 -0.29944,0 -0.59888,0 -0.90738,0 -0.14972,0.58564 -0.29943,1.17128 -0.45369,1.77466 -0.29943,0 -0.59887,0 -0.90738,0 -0.14971,0.43924 -0.29943,0.87847 -0.45368,1.33101 -0.64788,0.53042 -1.29766,1.05894 -1.96008,1.5719 -0.81065,0.68766 -1.4682,1.41862 -2.15147,2.227 -1.08892,1.28007 -2.19339,2.34375 -3.60115,3.29978 -0.29944,0 -0.59887,0 -0.90737,0 -0.29944,0.58564 -0.59887,1.17128 -0.90738,1.77466 -0.29943,0 -0.59887,0 -0.90737,0 -0.0936,0.25623 -0.18715,0.51244 -0.28356,0.77642 -0.85157,1.36271 -1.9818,1.90974 -3.34595,2.77293 -0.7659,0.72978 -1.52145,1.47004 -2.26845,2.21833 -0.55178,0.49621 -1.10968,0.98596 -1.67297,1.46965 -0.26375,0.22706 -0.52751,0.45411 -0.79926,0.68803 -0.70357,0.50433 -0.70357,0.50433 -1.61095,0.50433 0,0.29282 0,0.58565 0,0.88733 -0.74858,0.29283 -1.49717,0.58565 -2.26844,0.88734 0,0.29282 0,0.58564 0,0.88733 -0.62723,0.43386 -1.25849,0.86319 -1.90868,1.26342 -0.86619,0.5444 -1.68723,1.13245 -2.51478,1.73134 -1.47449,0.99825 -1.47449,0.99825 -2.38187,0.99825 0,0.29283 0,0.58564 0,0.88734 -0.84534,0.66896 -0.84534,0.66896 -1.95652,1.38646 -0.36318,0.23906 -0.72637,0.47812 -1.10055,0.72442 -1.02611,0.55112 -1.02611,0.55112 -2.38717,0.55112 -0.14972,0.43924 -0.29945,0.87846 -0.45369,1.33101 -0.9056,0.61524 -0.9056,0.61524 -2.01325,1.19235 -0.54652,0.29082 -0.54652,0.29082 -1.10409,0.58751 -0.96585,0.43847 -0.96585,0.43847 -1.87323,0.43847 0,0.29282 0,0.58564 0,0.88734 -1.01927,0.58499 -2.04022,1.16682 -3.06239,1.74693 -0.28774,0.16557 -0.57548,0.33114 -0.87194,0.50173 -1.40237,0.79284 -2.65081,1.41108 -4.23205,1.74435 0,0.29281 0,0.58563 0,0.88733 -1.31842,0.55753 -2.17592,0.88733 -3.62951,0.88733 0,0.29283 0,0.58565 0,0.88734 -1.04801,0.29282 -2.09604,0.58563 -3.17581,0.88733 0,0.29283 0,0.58564 0,0.88734 -1.39612,0.67113 -2.79596,1.3345 -4.19662,1.9965 -0.39593,0.19045 -0.79186,0.3809 -1.19979,0.57711 -0.38307,0.18016 -0.76613,0.36031 -1.16081,0.54593 -0.52744,0.25093 -0.52744,0.25093 -1.06554,0.50692 -0.99732,0.36655 -0.99732,0.36655 -2.81207,0.36655 0,0.29281 0,0.58564 0,0.88733 -1.09493,0.44747 -2.1914,0.89046 -3.28923,1.331 -0.30938,0.12697 -0.61876,0.25393 -0.93751,0.38474 -1.58689,0.6328 -2.65525,0.94626 -4.39333,0.94626 0,0.29283 0,0.58565 0,0.88734 -0.51466,0.17672 -1.02931,0.35344 -1.55956,0.53552 -0.68998,0.23741 -1.37997,0.47484 -2.06994,0.7123 -0.33745,0.11581 -0.6749,0.23162 -1.02258,0.35094 -1.65308,0.56933 -3.30063,1.14818 -4.93916,1.75648 -1.58952,0.58636 -3.19133,1.11308 -4.81335,1.60829 -0.4936,0.1527 -0.9872,0.3054 -1.49576,0.46274 -1.33979,0.34141 -1.33979,0.34141 -3.15454,0.34141 0,0.29282 0,0.58564 0,0.88734 -0.42694,0.0858 -0.85386,0.17156 -1.29372,0.25996 -0.56495,0.11552 -1.1299,0.23104 -1.71197,0.35008 -0.83689,0.16985 -0.83689,0.16985 -1.69069,0.34315 -1.5017,0.34276 -2.91654,0.7883 -4.37738,1.26514 -0.8191,0.16407 -1.64167,0.31248 -2.46693,0.44367 -1.94809,0.32739 -3.79949,0.79504 -5.69946,1.331 -1.0586,0.14788 -2.11721,0.29578 -3.17581,0.44367 -0.47372,0.14127 -0.94743,0.28253 -1.43549,0.42807 -1.92776,0.50872 -3.78562,0.73859 -5.76681,0.93066 -2.2509,0.0343 -2.2509,0.0343 -4.1399,0.85961 -0.66101,0.0961 -1.32624,0.16484 -1.99197,0.22183 -0.63952,0.0549 -0.63952,0.0549 -1.29195,0.11091 -0.67636,0.0549 -0.67636,0.0549 -1.36638,0.11092 -0.62373,0.0549 -0.62373,0.0549 -1.26006,0.11092 -7.8756,0.65809 -15.76311,0.86659 -23.66443,0.8596 -0.42549,1.8e-4 -0.85098,3.5e-4 -1.28937,4.5e-4 -9.69575,-0.005 -19.37941,-0.38704 -29.02265,-1.41472 0,-0.29281 0,-0.58564 0,-0.88733 -0.25909,0.0103 -0.51817,0.0205 -0.7851,0.0312 -4.69527,0.1022 -9.17716,-0.79554 -13.73292,-1.80587 -0.82878,-0.18036 -1.65758,-0.36059 -2.48642,-0.54071 -0.86309,-0.18937 -1.72617,-0.37886 -2.58922,-0.56846 -0.43481,-0.0944 -0.86964,-0.18872 -1.31764,-0.28595 -2.15028,-0.47374 -4.22571,-1.00147 -6.30999,-1.71054 -0.64961,-0.14967 -1.30179,-0.28933 -1.95652,-0.41594 -1.70312,-0.35847 -3.31737,-0.8327 -4.96221,-1.38993 -1.70204,-0.5627 -3.41682,-1.08301 -5.13235,-1.60483 -0.33017,-0.10055 -0.66035,-0.2011 -1.00052,-0.3047 -0.79117,-0.24073 -1.58246,-0.48105 -2.37378,-0.72128 0,-0.29282 0,-0.58564 0,-0.88734 -0.42108,-0.0365 -0.84216,-0.0732 -1.27599,-0.11091 -2.41039,-0.32496 -4.63457,-1.24975 -6.8904,-2.10742 0,-0.29282 0,-0.58565 0,-0.88734 -1.49717,-0.29282 -2.99433,-0.58564 -4.53688,-0.88734 0,-0.29281 0,-0.58563 0,-0.88733 -1.34744,-0.29281 -2.69491,-0.58564 -4.08319,-0.88733 0,-0.29283 0,-0.58565 0,-0.88734 -0.36376,-0.0303 -0.72753,-0.0606 -1.10232,-0.0918 -2.14208,-0.46526 -3.8475,-1.40265 -5.75971,-2.43151 -0.76477,-0.40307 -1.52978,-0.80573 -2.29503,-1.20795 -0.37129,-0.19624 -0.74258,-0.39248 -1.12513,-0.59467 -2.143,-1.12075 -4.32298,-2.16897 -6.50426,-3.21637 0,-0.29282 0,-0.58564 0,-0.88733 -0.35558,-0.0641 -0.71116,-0.12811 -1.07751,-0.19411 -1.19093,-0.24956 -1.19093,-0.24956 -2.09831,-0.69322 0,-0.29282 0,-0.58565 0,-0.88734 -0.23394,-0.0366 -0.46787,-0.0732 -0.70888,-0.11092 -1.57977,-0.47534 -2.86256,-1.28009 -4.28169,-2.10742 0,-0.29282 0,-0.58564 0,-0.88733 -0.27135,-0.0641 -0.54272,-0.12811 -0.82231,-0.19411 -0.79349,-0.19954 -1.57623,-0.43987 -2.3535,-0.69323 -0.14972,-0.29282 -0.29944,-0.58564 -0.4537,-0.88734 -0.82657,-0.48675 -1.67065,-0.94541 -2.52363,-1.38646 -0.68864,-0.35859 -0.68864,-0.35859 -1.3912,-0.72442 -0.35498,-0.18186 -0.70998,-0.36374 -1.07573,-0.55112 0,-0.29282 0,-0.58565 0,-0.88733 -0.32751,-0.11896 -0.65501,-0.23792 -0.99244,-0.36049 -2.283938,-0.94303 -3.873288,-2.08766 -5.529318,-3.85436 -0.7301,-0.70624 -0.7301,-0.70624 -1.70134,-1.22008 -1.90573,-1.13439 -3.73114,-2.41754 -5.38754,-3.88209 0,-0.29282 0,-0.58564 0,-0.88733 -0.26201,-0.11897 -0.52401,-0.23793 -0.79395,-0.36049 -1.04598,-0.53985 -1.9375,-1.1051 -2.8355,-1.85785 0,-0.29283 0,-0.58565 0,-0.88734 -0.7486,-0.29282 -1.49721,-0.58563 -2.26848,-0.88733 0,-0.29282 0,-0.58564 0,-0.88733 -0.25261,-0.10982 -0.50529,-0.21962 -0.76559,-0.33276 -1.88817,-0.9981 -3.36819,-2.36285 -4.87063,-3.84407 -0.86615,-0.85179 -1.73902,-1.69687 -2.61171,-2.54232 -0.71003,-0.69031 -1.42015,-1.38064 -2.13018,-2.07102 -0.35267,-0.34115 -0.70526,-0.68229 -1.06866,-1.03378 -1.94268,-1.8918 -3.8105,-3.81555 -5.5899,-5.85574 -0.55709,-0.62398 -1.1563,-1.21165 -1.763,-1.78972 -0.70887,-0.72096 -0.70887,-0.72096 -0.70887,-1.6083 -0.29951,0 -0.59888,0 -0.90737,0 0,-0.43924 0,-0.87846 0,-1.33101 -0.59888,-0.29281 -1.19776,-0.58563 -1.81479,-0.88733 0,-0.29281 0,-0.58564 0,-0.88733 -0.29944,0 -0.59882,0 -0.90737,0 -0.10289,-0.24707 -0.20585,-0.49414 -0.31191,-0.74869 -0.57207,-1.09157 -0.57207,-1.09157 -1.61624,-2.02423 -1.4963,-1.46321 -2.8246,-3.0261 -3.96978,-4.76943 0,-0.29281 0,-0.58565 0,-0.88733 -0.29944,0 -0.59889,0 -0.90737,0 -0.12169,-0.26537 -0.24332,-0.53074 -0.36868,-0.80415 -0.47578,-0.96675 -0.47578,-0.96675 -1.16256,-1.58057 -1.04159,-1.01857 -1.78063,-2.16045 -2.55197,-3.38296 0,-0.29283 0,-0.58564 0,-0.88734 -0.29944,0 -0.59888,0 -0.90743,0 -0.68408,-0.93933 -0.68408,-0.93933 -1.41776,-2.16287 -0.24441,-0.40149 -0.48889,-0.80297 -0.74079,-1.21662 -0.56354,-1.05718 -0.56354,-1.05718 -0.56354,-1.94452 -0.29945,0 -0.59889,0 -0.90737,0 -0.50504,-0.63603 -0.50504,-0.63603 -1.04914,-1.5251 -0.20236,-0.32943 -0.40473,-0.65885 -0.61316,-0.99826 -0.7353,-1.24459 -1.44669,-2.50026 -2.14976,-3.76251 -0.60431,-1.04764 -1.22605,-2.07904 -1.86084,-3.10913 -0.20424,-0.33318 -0.40854,-0.66635 -0.61904,-1.00964 -0.41189,-0.67018 -0.8265,-1.33885 -1.24388,-2.00581 -0.99256,-1.61985 -1.79077,-2.97417 -1.99165,-4.89257 -0.29944,0 -0.59888,0 -0.90736,0 -0.0842,-0.64513 -0.0842,-0.64513 -0.17013,-1.30328 -0.0936,-0.44839 -0.18712,-0.89676 -0.28355,-1.35873 -0.29944,-0.14641 -0.59888,-0.29283 -0.90737,-0.44367 -0.45368,-0.44368 -0.45368,-0.44368 -0.59016,-1.44366 0.17989,-1.60576 0.78012,-2.20181 1.86614,-3.40895 0.37489,-0.4278 0.74977,-0.85559 1.13602,-1.29635 0.30015,-0.34014 0.30015,-0.34014 0.60631,-0.68716 1.03493,-1.19583 2.01095,-2.43586 2.99306,-3.67326 2.04266,-2.55937 4.1321,-5.07834 6.23742,-7.58859 2.17133,-2.60371 4.2494,-5.27314 6.29013,-7.97584 0.3493,-0.45569 0.3493,-0.45569 0.70558,-0.92058 0.20482,-0.2708 0.40964,-0.54161 0.62058,-0.82061 0.18183,-0.19131 0.36358,-0.38261 0.5509,-0.57973 0.29944,0 0.59888,0 0.90737,0 0.15346,-0.4641 0.15346,-0.4641 0.31009,-0.93758 0.72761,-1.56017 1.75131,-2.7472 2.8941,-4.02594 1.49953,-1.6288 1.49953,-1.6288 2.69374,-3.46616 0.29944,0 0.59888,0 0.90737,0 0.44916,-1.09807 0.44916,-1.09807 0.90743,-2.21833 0.29937,0 0.59881,0 0.90736,0 0.10464,-0.23563 0.20933,-0.47126 0.31721,-0.71403 0.77637,-1.39542 1.76253,-2.59715 2.7735,-3.83356 0.21774,-0.26865 0.43547,-0.53731 0.65979,-0.81411 2.20641,-2.71441 4.44601,-5.40263 6.68608,-8.09043 2.57405,-3.08904 5.10657,-6.20947 7.62585,-9.34129 0.21263,-0.26429 0.42534,-0.52859 0.64443,-0.80089 0.84845,-1.0568 1.68896,-2.11049 2.48,-3.20945 0.19474,-0.2322 0.38948,-0.46439 0.5901,-0.70363 0.29945,0 0.59888,0 0.90743,0 0.0936,-0.30196 0.18712,-0.60394 0.28355,-0.91506 0.83296,-1.74031 2.0445,-2.98656 3.3459,-4.40894 1.26181,-1.47321 1.26181,-1.47321 2.26844,-3.10568 0.29943,0 0.59886,0 0.90738,0 0.16843,-0.35688 0.16843,-0.35688 0.34027,-0.72096 0.70617,-1.3121 1.49007,-2.51658 2.38186,-3.71571 0.29943,0 0.59886,0 0.90738,0 0.0281,-0.24707 0.0561,-0.49414 0.0851,-0.74869 0.52219,-1.45342 1.5122,-2.16876 2.63705,-3.24432 0.71539,-0.88255 1.39682,-1.78453 2.077048,-2.6932 0.5459,-0.72451 1.11744,-1.43044 1.69424,-2.13169 0.77899,-0.8928 0.77899,-0.8928 1.21929,-1.83012 0.29943,0 0.59886,0 0.90737,0 0.12194,-0.25818 0.24388,-0.51637 0.36951,-0.78237 0.54367,-1.00303 1.14579,-1.79817 1.88476,-2.67165 0.38861,-0.46282 0.38861,-0.46282 0.78508,-0.935 0.26961,-0.31769 0.53922,-0.63539 0.817,-0.96273 0.53456,-0.63329 1.06861,-1.26701 1.60208,-1.90118 0.35486,-0.4187 0.35486,-0.4187 0.71687,-0.84584 0.54899,-0.67494 1.04821,-1.38802 1.5374,-2.10558 0.29943,0 0.59887,0 0.90738,0 0.11697,-0.32199 0.23393,-0.64398 0.35444,-0.97573 0.57672,-1.29606 1.25169,-2.26692 2.14084,-3.37777 0.27604,-0.35058 0.55209,-0.70116 0.83648,-1.06236 0.24797,-0.26252 0.49594,-0.52503 0.75143,-0.79548 0.29944,0 0.59886,0 0.90737,0 0.29944,-0.73206 0.59887,-1.46411 0.90738,-2.21835 0.29944,0 0.59887,0 0.90738,0 0.11229,-0.31741 0.22458,-0.63483 0.34026,-0.96186 0.63001,-1.39584 1.40401,-2.42691 2.38186,-3.61345 0.31816,-0.39177 0.6363,-0.78354 0.96408,-1.18716 0.42109,-0.44181 0.42109,-0.44181 0.85067,-0.89254 0.29944,0 0.59888,0 0.90738,0 0.0467,-0.26536 0.0936,-0.53074 0.14178,-0.80415 0.36244,-1.12775 0.82167,-1.48108 1.67297,-2.30152 0.59891,-0.81162 1.165,-1.63959 1.73146,-2.47311 0.1772,-0.20874 0.35441,-0.41748 0.53699,-0.63257 0.29943,0 0.59886,0 0.90737,0 0.12164,-0.33857 0.24329,-0.67714 0.36862,-1.02598 0.52047,-1.15189 0.96816,-1.69149 1.89982,-2.52335 0.14972,-0.29282 0.29943,-0.58565 0.45369,-0.88733 0.29944,0 0.59887,0 0.90737,0 0.18861,-0.39035 0.18861,-0.39035 0.38103,-0.78856 1.57635,-2.95329 4.03192,-5.48466 6.18682,-8.04147 2.08231,-2.49971 4.10609,-5.04477 6.13541,-7.58568 2.16565,0.33622 2.16565,0.33622 3.09075,1.30328 0.53876,0.91506 0.53876,0.91506 0.53876,1.8024 0.29943,0 0.59886,0 0.90738,0 0.10292,0.24706 0.20586,0.49413 0.3119,0.74868 0.57206,1.09158 0.57206,1.09158 1.61627,2.02424 1.49625,1.4632 2.82459,3.02609 3.96977,4.76943 0,0.29282 0,0.58563 0,0.88733 0.44915,0.14641 0.8983,0.29282 1.36107,0.44366 0.15121,0.59157 0.30245,1.18313 0.45368,1.77468 0.44915,0.14641 0.89831,0.29282 1.36107,0.44367 0.92687,1.0797 0.92687,1.0797 1.89982,2.41244 0.32457,0.43865 0.64915,0.87732 0.98357,1.32927 0.7461,1.13863 0.7461,1.13863 0.7461,2.02596 0.26904,0.10981 0.53805,0.21962 0.81523,0.33275 1.15754,0.64226 1.68768,1.28406 2.47401,2.32926 1.49635,1.95847 3.05797,3.85222 4.64854,5.73821 0.6823,0.91679 0.6823,0.91679 0.6823,1.80414 0.44915,0.1464 0.8983,0.29282 1.36106,0.44366 0.31191,0.91506 0.31191,0.91506 0.45369,1.77467 0.29944,0 0.59887,0 0.90738,0 0.68408,0.74523 0.68408,0.74523 1.41777,1.71921 0.24446,0.31914 0.48893,0.63825 0.74079,0.96707 0.56357,0.86307 0.56357,0.86307 0.56357,1.75039 0.29943,0 0.59887,0 0.90737,0 0.11229,0.25622 0.22458,0.51244 0.34027,0.77642 0.64858,1.14166 1.43639,1.85169 2.38185,2.77292 0.57901,0.6744 1.14638,1.35852 1.70134,2.05197 0.41757,0.51643 0.41757,0.51643 0.84358,1.04331 0.63091,0.89774 0.63091,0.89774 0.63091,1.78507 0.44915,0.14641 0.8983,0.29282 1.36106,0.44367 0.15123,0.59155 0.30246,1.18311 0.45369,1.77466 0.44915,0.14642 0.89829,0.29283 1.36106,0.44367 0.65217,0.69843 0.65217,0.69843 1.36106,1.63603 1.21091,1.57385 2.43424,3.13427 3.68301,4.67942 1.045,1.29306 2.08388,2.59079 3.12232,3.88891 0.30528,0.38147 0.61056,0.76293 0.92509,1.15596 1.79703,2.2862 1.79703,2.2862 1.79703,3.28071 0.44915,0.14641 0.89831,0.29282 1.36106,0.44367 0.61867,0.87823 1.22233,1.76665 1.81476,2.662 0.28071,0.2711 0.56144,0.54218 0.85066,0.82148 1.07814,1.06596 1.92326,2.19691 2.80719,3.42109 0.98194,1.35836 1.93157,2.58497 3.14747,3.74344 1.38836,1.60503 2.7346,3.24329 4.08319,4.88035 0.48161,0.5825 0.48161,0.5825 0.97295,1.17676 0.28715,0.35287 0.5743,0.70575 0.87016,1.06931 0.25791,0.31627 0.51581,0.63253 0.78155,0.95839 0.55115,0.78855 0.55115,0.78855 0.55115,1.67588 0.29944,0 0.59887,0 0.90738,0 0.76432,0.87133 1.4768,1.74721 2.18338,2.662 0.45131,0.57353 0.90326,1.14658 1.35574,1.71921 0.23723,0.30083 0.47445,0.60166 0.71886,0.91161 1.20311,1.50848 2.4427,2.98741 3.68155,4.46786 2.05342,2.46044 4.07879,4.93968 6.07927,7.4414 2.20655,2.7578 4.44624,5.48938 6.68669,8.22085 0.88747,1.08226 1.77346,2.16567 2.65944,3.24908 0.26668,0.32599 0.53337,0.65198 0.80813,0.98786 0.386,0.47183 0.386,0.47183 0.77978,0.95318 0.33218,0.38776 0.66437,0.77553 1.00662,1.17503 0.80813,1.04331 0.80813,1.04331 0.80813,1.93065 0.29943,0 0.59888,0 0.90738,0 0.57702,0.70866 1.11925,1.44452 1.64461,2.19061 1.47686,2.04079 3.04556,3.89926 4.76551,5.74515 1.03533,1.14352 1.96221,2.34185 2.88162,3.57533 1.04893,1.38702 2.16022,2.72552 3.2662,4.06927 0.59901,0.83533 0.59901,0.83533 0.59901,1.72268 0.44915,0.1464 0.8983,0.29282 1.36107,0.44366 0.6934,0.79721 1.34901,1.62607 1.98488,2.4679 0.40252,0.52582 0.80603,1.05091 1.21042,1.57537 0.21545,0.27945 0.43088,0.55891 0.65285,0.84682 1.20771,1.53889 2.46624,3.03699 3.72276,4.53785 2.04838,2.45133 4.0744,4.91547 6.03972,7.43142 1.66796,-1.56995 3.1275,-3.22175 4.53688,-5.01898 1.88942,-2.38103 3.80823,-4.73544 5.75617,-7.07096 1.84579,-2.21418 3.68309,-4.43402 5.50274,-6.66886 0.83065,-1.01141 1.66671,-2.0179 2.50591,-3.02249 0.26873,-0.32199 0.53746,-0.64398 0.81434,-0.97573 0.53801,-0.64413 1.07675,-1.2877 1.61626,-1.93065 0.24592,-0.29453 0.49184,-0.58907 0.74522,-0.89253 0.33242,-0.39677 0.33242,-0.39677 0.67156,-0.80154 0.57275,-0.68497 0.57275,-0.68497 0.98901,-1.56931 -0.29944,0 -0.59887,0 -0.90738,0 -0.44126,-0.62495 -0.87894,-1.25282 -1.29194,-1.89598 -0.53987,-0.79102 -1.13275,-1.49068 -1.77045,-2.20794 -1.0208,-1.22008 -1.0208,-1.22008 -1.0208,-2.10742 -0.29944,0 -0.59887,0 -0.90738,0 -0.29944,-0.73205 -0.59886,-1.46411 -0.90737,-2.21834 -0.29944,0 -0.59887,0 -0.90738,0 -0.78391,-0.88963 -1.51541,-1.78311 -2.24009,-2.71746 -0.45422,-0.57542 -0.9085,-1.1508 -1.36283,-1.72615 -0.3475,-0.44309 -0.3475,-0.44309 -0.70202,-0.89512 -1.03269,-1.31432 -2.07734,-2.61929 -3.1242,-3.92282 -0.20319,-0.25344 -0.40638,-0.50686 -0.61574,-0.76798 -1.85251,-2.30371 -3.74452,-4.5752 -5.63897,-6.84597 -1.79855,-2.15923 -3.56748,-4.33917 -5.32153,-6.53304 -2.71345,-3.39171 -5.47515,-6.74584 -8.23185,-10.10395 -0.855,-1.04889 -1.70301,-2.10294 -2.54878,-3.15896 -2.70012,-3.37121 -5.42959,-6.71882 -8.16962,-10.05913 -0.83773,-1.02224 -1.67246,-2.0468 -2.50769,-3.07101 -1.53905,-1.88132 -3.09761,-3.74648 -4.65916,-5.60997 -3.43135,-4.09617 -6.84944,-8.20053 -10.18471,-12.3721 -1.73853,-2.17333 -3.50038,-4.32778 -5.26616,-6.47997 -1.55126,-1.89293 -3.08739,-3.79685 -4.61597,-5.70734 -1.78556,-2.2309 -3.60539,-4.43047 -5.44779,-6.61689 -1.18129,-1.42148 -2.3332,-2.86348 -3.48418,-4.30843 -1.64622,-2.06476 -3.3335,-4.0847 -5.07564,-6.0727 -2.24068,-2.55999 -4.34308,-5.20617 -6.4285,-7.88766 -3.30631,-4.23055 -6.72993,-8.36984 -10.17187,-12.49505 -0.22099,-0.26601 -0.44199,-0.53202 -0.66967,-0.80609 -0.56182,-0.67263 -1.13125,-1.33918 -1.70155,-2.00496 -0.73547,-0.95839 -0.73547,-0.95839 -0.73547,-1.84572 -0.29944,0 -0.59888,0 -0.90738,0 -0.29944,-0.73205 -0.59888,-1.46411 -0.90738,-2.21834 -0.29943,0 -0.59887,0 -0.90737,0 -0.57243,-0.63603 -0.57243,-0.63603 -1.21929,-1.52511 -1.3076,-1.77126 -2.67905,-3.48018 -4.07965,-5.18189 -0.59901,-0.83534 -0.59901,-0.83534 -0.59901,-1.72267 -0.29944,0 -0.59887,0 -0.90737,0 -0.57597,-0.62392 -0.57597,-0.62392 -1.27601,-1.55284 -1.53476,-1.98765 -3.12309,-3.92342 -4.73536,-5.85087 -2.08252,-2.49612 -4.13546,-5.01177 -6.16233,-7.55124 -1.59715,-1.99573 -3.22816,-3.96284 -4.86796,-5.92517 -2.21134,-2.6463 -4.35847,-5.33182 -6.47391,-8.05187 -0.84589,-1.06418 -1.71646,-2.0852 -2.6282,-3.09527 -1.07752,-1.24782 -1.07752,-1.24782 -1.07752,-2.13515 -0.29943,0 -0.59886,0 -0.90737,0 -0.62398,-0.87461 -1.22591,-1.76438 -1.81475,-2.662 -0.9126,-1.24584 -0.9126,-1.24584 -1.81475,-2.21833 -0.29944,0 -0.59887,0 -0.90737,0 -0.77333,0.79945 -0.77333,0.79945 -1.58792,1.85785 -0.32575,0.40777 -0.65149,0.81555 -0.98712,1.23568 -1.25068,1.59305 -2.49879,3.18802 -3.74636,4.7834 -2.8651,3.64706 -5.8637,7.19141 -8.85058,10.74324 -2.02903,2.41372 -4.01764,4.85377 -5.98499,7.31552 -1.61988,2.02183 -3.26937,4.01854 -4.9301,6.00837 -2.04312,2.44821 -4.05679,4.91577 -6.04437,7.40727 -1.88149,2.35199 -3.80937,4.66617 -5.75063,6.97119 -1.15761,1.38203 -2.25951,2.77009 -3.29367,4.24343 -0.3357,0.44324 -0.6714,0.88647 -1.01726,1.34313 -0.29943,0 -0.59886,0 -0.90738,0 -0.11696,0.32199 -0.23393,0.64398 -0.35444,0.97573 -0.57671,1.29607 -1.25168,2.26693 -2.14084,3.37776 -0.27604,0.35059 -0.55208,0.70117 -0.83648,1.06238 -0.24797,0.26251 -0.495938,0.52502 -0.751418,0.79548 -0.29943,0 -0.59887,0 -0.90738,0 -0.29943,0.73205 -0.59886,1.4641 -0.90738,2.21834 -0.29943,0 -0.59886,0 -0.90737,0 -0.15352,0.34916 -0.15352,0.34916 -0.31013,0.70536 -0.80877,1.44801 -1.84398,2.69659 -2.89404,3.98088 -0.22341,0.27566 -0.44681,0.55132 -0.677,0.83534 -1.66376,2.04745 -3.35663,4.07087 -5.05613,6.09003 -1.3834,1.66292 -2.73418,3.34977 -4.08496,5.03805 -1.7697,2.21005 -3.56131,4.40235 -5.35763,6.59176 -1.5514,1.89311 -3.08768,3.7972 -4.6164,5.70788 -1.46362,1.82868 -2.94255,3.64182 -4.45183,5.43493 -1.52536,1.81341 -3.02496,3.64424 -4.50847,5.49039 -0.31139,0.387 -0.31139,0.387 -0.62905,0.78183 -1.07639,1.3426 -2.1402,2.69308 -3.18837,4.05692 -0.3101,0.40158 -0.3101,0.40158 -0.62659,0.81129 -0.39497,0.51272 -0.78755,1.02724 -1.17742,1.54374 -0.45853,0.59451 -0.94631,1.1673 -1.43914,1.73503 -0.29944,0 -0.59888,0 -0.90736,0 -0.11226,0.32484 -0.22458,0.64969 -0.34026,0.98438 -0.6242,1.35811 -1.33076,2.1585 -2.38184,3.23046 -1.78404,1.88352 -3.40191,3.83721 -4.9854,5.88389 -1.53906,1.98239 -3.1294,3.91886 -4.74055,5.84556 -2.05333,2.45696 -4.07688,4.93306 -6.07265,7.43489 -1.88159,2.35202 -3.80941,4.66625 -5.75074,6.97131 -1.15759,1.38203 -2.2595,2.77009 -3.29365,4.24344 -0.50355,0.66485 -0.50355,0.66485 -1.01723,1.34313 -0.29945,0 -0.59889,0 -0.90737,0 -0.11698,0.32198 -0.23395,0.64397 -0.35448,0.97572 -0.57673,1.29607 -1.25169,2.26693 -2.14085,3.37777 -0.27598,0.35058 -0.55205,0.70117 -0.83644,1.06237 -0.24796,0.26251 -0.49599,0.52502 -0.75144,0.79548 -0.29944,0 -0.59888,0 -0.90737,0 -0.11109,0.32199 -0.22225,0.64398 -0.33678,0.97572 -0.63433,1.38143 -1.39314,2.26927 -2.44209,3.37777 -0.3287,0.35058 -0.65733,0.70118 -0.99598,1.06237 -0.25145,0.26251 -0.50296,0.52502 -0.76204,0.79549 -0.88612,-0.28769 -0.88612,-0.28769 -1.81473,-0.88733 -0.27651,-1.15423 -0.27651,-1.15423 -0.34026,-2.49564 -0.0258,-0.44494 -0.0517,-0.8899 -0.0781,-1.34833 -0.0116,-0.342 -0.0232,-0.684 -0.0355,-1.03638 -0.29944,0 -0.59888,0 -0.90737,0 -0.89347,-4.08989 -1.62916,-8.17896 -2.22733,-12.32 -0.25759,-1.76004 -0.55057,-3.49477 -0.93824,-5.23216 -1.9036105,-9.26302 -1.52963,-19.08032 -1.51452,-28.49404 0,-1.40747 0,-2.81477 -0.01,-4.22221 -0.0452,-7.71904 0.10529,-15.36789 0.81358,-23.05978 0.0303,-0.33093 0.0607,-0.66186 0.0919,-1.00282 0.50987,-5.43311 0.50987,-5.43311 1.06173,-5.97281 0.12389,-0.64357 0.22264,-1.29179 0.31016,-1.94104 0.0838,-0.60137 0.0838,-0.60137 0.16923,-1.21488 0.0569,-0.42265 0.11407,-0.8453 0.17278,-1.28075 0.4053,-2.99857 0.90633,-5.92924 1.61624,-8.87335 0.15424,-0.73886 0.30719,-1.47798 0.45374,-2.21834 0.29939,0 0.59883,0 0.90737,0 -0.0284,-0.64511 -0.0284,-0.64511 -0.0569,-1.30326 0,-2.95433 0.925,-5.68082 1.87144,-8.45742 0.32676,-1.32614 0.6222,-2.6578 0.90736,-3.99301 0.29944,0 0.59888,0 0.90737,0 0.0284,-0.44839 0.0562,-0.89676 0.0851,-1.35873 0.61994,-4.78235 2.83642,-9.45342 4.69288,-13.89234 0.62478,-1.50792 1.21643,-3.02427 1.80058,-4.54759 1.42539,-3.64385 3.109,-7.16614 4.90544,-10.64802 0.78239,-1.44182 0.78239,-1.44182 1.21934,-2.82838 0.29945,0 0.59882,0 0.90737,0 0.0655,-0.33857 0.13099,-0.67715 0.19849,-1.02598 0.25519,-1.19236 0.25519,-1.19236 0.70887,-2.52336 0.29945,0 0.59889,0 0.90737,0 0.29944,-1.02488 0.59888,-2.04974 0.90736,-3.10567 0.29945,0 0.59889,0 0.90743,0 0.0471,-0.31971 0.0947,-0.63941 0.14352,-0.96879 0.34124,-1.37492 0.87191,-2.30294 1.64286,-3.49562 0.83328,-1.2994 1.61999,-2.58085 2.29677,-3.96527 0.29944,0 0.59888,0 0.90737,0 0.11645,-0.38662 0.23278,-0.77324 0.35273,-1.17157 0.56477,-1.51764 1.26176,-2.69764 2.17094,-4.04153 1.07284,-1.5711 1.07284,-1.5711 2.01321,-3.21659 0.29945,0 0.59889,0 0.90737,0 0.10593,-0.30425 0.21179,-0.60851 0.32082,-0.92199 0.71372,-1.57722 1.67619,-2.90756 2.71324,-4.2911 0.20314,-0.27401 0.40628,-0.54803 0.61555,-0.83035 2.36097,-3.17084 4.79144,-6.244428 7.47466,-9.162558 0.7537,-0.82848 0.7537,-0.82848 1.57904,-2.09702 0.29944,0 0.59887,0 0.90736,0 0.0842,-0.30198 0.16846,-0.60394 0.2552,-0.91507 0.75791,-1.514534 1.68464,-2.359437 2.92239,-3.509478 1.00767,-1.000829 1.86976,-2.062906 2.7487,-3.173262 0.99709,-1.245592 1.93442,-2.37288 3.20421,-3.355235 1.06328,-0.836356 1.80885,-1.565386 2.66538,-2.578817 0.86325,-1.020967 1.72049,-1.890531 2.77887,-2.717458 1.30925,-0.981021 1.30925,-0.981021 2.1621,-2.124753 0.94359,-1.131221 1.87163,-1.928789 3.05532,-2.811054 2.12004,-1.611839 4.09457,-3.335136 6.05385,-5.1299 0.92156,-0.748692 0.92156,-0.748692 1.82894,-0.748692 0,-0.292819 0,-0.585637 0,-0.887332 0.262,-0.10981 0.524,-0.219619 0.79395,-0.332749 1.05844,-0.515228 1.05844,-0.515228 1.87145,-1.386462 1.13076,-1.10578 2.32229,-1.905578 3.68622,-2.717465 0.29944,0 0.59887,0 0.90738,0 0.14972,-0.439232 0.29944,-0.878464 0.45369,-1.331002 0.93573,-0.305023 0.93573,-0.305023 1.81475,-0.443671 0,-0.292818 0,-0.585636 0,-0.887332 2.274478,-1.66819 2.274478,-1.66819 3.771278,-2.024234 0.37898,-0.09608 0.37898,-0.09608 0.7656,-0.194108 0.14972,-0.439224 0.29943,-0.878455 0.45369,-1.331002 0.44915,-0.146406 0.8983,-0.292819 1.36107,-0.443662 0.45496,-0.442421 0.90847,-0.886267 1.36106,-1.331002 0.70727,-0.442566 1.42695,-0.86649 2.15502,-1.275549 1.43234,-0.817584 2.79026,-1.654537 4.11156,-2.63427 1.33772,-0.897781 2.12358,-1.272752 3.71456,-1.41419 0,-0.292827 0,-0.585645 0,-0.88734 2.07859,-1.062775 4.09574,-2.000186 6.35163,-2.662005 0,-0.292818 0,-0.585636 0,-0.887332 1.19774,-0.292826 2.39547,-0.585644 3.62951,-0.887339 0,-0.292819 0,-0.585638 0,-0.887333 1.40627,-0.669698 2.81531,-1.333624 4.22496,-1.996507 0.39973,-0.190444 0.79947,-0.380896 1.21131,-0.577112 0.38453,-0.18015 0.76906,-0.360307 1.16523,-0.545915 0.53102,-0.250933 0.53102,-0.250933 1.07276,-0.506926 0.94581,-0.366546 0.94581,-0.366546 2.30687,-0.366546 0,-0.292819 0,-0.585645 0,-0.887332 1.5123,-0.591555 3.02459,-1.183118 4.53688,-1.774673 0.38657,-0.16586 0.77315,-0.331713 1.17144,-0.502595 1.097,-0.384744 1.097,-0.384744 2.91175,-0.384744 0,-0.292819 0,-0.585637 0,-0.887332 0.40266,-0.128683 0.40266,-0.128683 0.81344,-0.259964 2.29556,-0.738658 2.29556,-0.738658 4.54575,-1.597896 0.99244,-0.360475 0.99244,-0.360475 2.80719,-0.360475 0,-0.292826 0,-0.585645 0,-0.88734 0.31289,-0.08064 0.62577,-0.161277 0.94814,-0.244364 2.44733,-0.64017 4.8499,-1.324693 7.23065,-2.173276 0.89497,-0.244364 0.89497,-0.244364 2.70972,-0.244364 0,-0.292818 0,-0.585637 0,-0.887332 0.70829,-0.150637 1.41733,-0.297847 2.12667,-0.44367 0.39476,-0.08236 0.78952,-0.164711 1.19624,-0.249562 1.18545,-0.18954 2.28383,-0.227891 3.48241,-0.194101 0,-0.292826 0,-0.585644 0,-0.887339 2.44096,-0.52836 4.74236,-1.016866 7.25901,-0.887332 0,-0.292819 0,-0.585646 0,-0.887341 0.38892,-0.05373 0.77783,-0.107517 1.17853,-0.162909 3.27277,-0.438358 3.27277,-0.438358 6.47744,-1.19582 3.03462,-0.890275 5.9928,-0.915173 9.13047,-0.859605 0,-0.292818 0,-0.585637 0,-0.887332 10.60119,-1.093 21.15781,-1.46837 31.81487,-1.46965 z"
     fill="#137b98"
     id="path1"
     style="stroke-width:0.44865" />
  <path
     d="m 1155.973,98.057659 c 10.5179,0 21.0355,0 31.872,0 0.8175,0.739516 0.8175,0.739516 0.9188,2.211261 -5e-4,0.98018 -5e-4,0.98018 -8e-4,1.98015 0,0.75112 0,1.50222 0,2.27611 0,0.83517 0,1.67036 -0.018,2.53086 9e-4,1.31913 9e-4,1.31913 0,2.66491 9e-4,2.45199 0,4.90395 0,7.35593 0,2.64005 0,5.28007 0,7.9201 5e-4,4.57769 0,9.15534 -0.018,13.73303 -0.018,6.61863 -0.018,13.23728 -0.018,19.85591 -9e-4,10.73717 -0.018,21.47434 -0.018,32.21151 -0.018,10.43281 -0.018,20.86564 -0.018,31.29849 -10e-5,0.64261 -4e-4,1.28521 -7e-4,1.94732 -7e-4,3.22366 0,6.44735 0,9.67101 -0.018,26.76184 -0.024,53.52367 -0.04,80.2855 -10.7874,0 -21.5749,0 -32.6894,0 -0.2695,-3.66066 -0.5393,-7.32134 -0.8171,-11.09293 -1.0957,0.85417 -2.1912,1.70831 -3.3201,2.58834 -13.8168,9.91795 -29.0149,13.65146 -46.5311,12.20224 -17.8258,-2.07215 -32.1209,-11.37652 -43.3136,-23.66491 -13.0112,-16.20521 -15.7841,-38.14006 -12.405,-57.55117 2.5335,-12.04959 7.9414,-21.80945 16.4913,-31.19216 0.6951,-0.77932 0.6951,-0.77932 1.4047,-1.57437 3.2369,-3.50852 6.6586,-6.24141 10.8538,-8.779 0.9053,-0.55911 0.9053,-0.55911 1.8292,-1.12952 13.0246,-7.581 28.7348,-9.98921 43.9358,-7.74482 11.8347,2.37014 22.4871,7.77681 31.055,15.53009 0.2697,-34.16619 0.5394,-68.33237 0.8171,-103.533881 z M 1091.9894,224.1529 c -9.3299,10.86614 -10.5608,22.59978 -9.5674,35.86133 0.5606,3.38629 1.7621,6.47848 3.2688,9.61386 0.2263,0.53766 0.453,1.07532 0.6865,1.62926 3.3,6.99153 10.6058,13.56909 18.1642,16.85315 9.5889,3.45769 20.554,3.17335 30.1833,0.007 10.5357,-4.44181 15.9509,-11.26211 20.4311,-20.70678 4.5881,-11.52995 3.3006,-24.5655 -2.1135,-35.65334 -1.6679,-2.97675 -3.6295,-5.47707 -6.0591,-7.97881 -0.4278,-0.45567 -0.8552,-0.91136 -1.296,-1.38083 -5.6324,-5.57542 -13.6148,-8.84212 -21.9569,-9.22101 -12.8397,-0.2212 -22.7223,2.05157 -31.741,10.97738 z"
     fill="#137c98"
     id="path2"
     style="stroke-width:0.777411" />
  <path
     d="m 1864.8248,199.05808 c 15.1205,12.66316 23.2065,29.04251 24.2072,47.64463 0.7399,18.38003 -2.9615,35.83606 -16.3446,50.2879 -0.5173,0.58342 -1.0344,1.16683 -1.5674,1.76792 -9.6865,10.41022 -23.5247,17.3098 -38.4773,18.93887 -18.5383,1.30788 -33.5417,-2.74497 -48.2166,-13.31151 -0.8091,-0.73213 -0.8091,-0.73213 -1.6345,-1.47907 -0.2696,25.86869 -0.5392,51.73738 -0.8171,78.38995 -11.0573,0 -22.1144,0 -33.5067,0 0,-63.45149 0,-126.90297 0,-192.27721 11.0572,0 22.1143,0 33.5067,0 0.4044,5.49099 0.4044,5.49099 0.8171,11.09291 0.8764,-0.74738 1.7531,-1.49478 2.6561,-2.26479 22.6201,-17.80263 57.2074,-16.11419 79.3771,1.2104 z m -75.0101,24.73662 c -8.2746,9.28659 -11.1573,20.92925 -10.0255,32.69882 1.3322,10.2463 5.4765,19.7844 14.1819,26.70896 9.2308,6.35161 18.2163,7.75217 29.6823,7.13239 10.0028,-1.50015 17.7746,-6.77877 23.6997,-14.05104 7.3122,-10.69102 9.2936,-22.76926 6.4307,-35.00516 -2.4915,-9.31436 -7.0679,-16.63994 -15.4202,-22.678 -15.6658,-8.5895 -35.7087,-7.24749 -48.5489,5.19403 z"
     fill="#15819f"
     id="path3"
     style="stroke-width:0.777411" />
  <path
     d="m 1652.0342,200.85201 c 0.2697,-3.90471 0.5394,-7.80939 0.8173,-11.83245 11.0572,0 22.1142,0 33.5065,0 0,41.24347 0,82.48692 0,124.98019 -11.0572,0 -22.1143,0 -33.5065,0 0,-3.66066 0,-7.32134 0,-11.09293 -1.3486,0.97619 -2.697,1.95235 -4.0862,2.95813 -14.1683,9.80146 -29.9355,13.63124 -47.6718,11.61577 -11.1348,-1.63608 -21.3311,-5.73129 -29.9656,-12.35532 -0.5742,-0.40514 -1.1483,-0.81029 -1.7399,-1.22771 -13.8932,-10.29852 -21.4354,-26.36448 -23.4445,-42.23415 -1.7974,-19.8098 1.5437,-39.63694 16.048,-55.28819 12.007,-12.30616 25.7144,-19.90986 44.2089,-20.98662 18.0536,-0.70813 32.1527,4.85178 45.8338,15.46328 z m -62.378,23.4049 c -9.1739,10.97645 -10.8065,22.29804 -9.5386,35.75732 1.2373,6.89195 4.1832,13.01173 8.9894,18.48819 0.472,0.64061 0.9441,1.28123 1.43,1.94127 6.3516,6.06671 14.1574,9.59566 23.3586,10.01537 11.4921,0.0584 20.2089,-1.77917 28.9447,-8.99853 9.236,-8.838 12.0285,-20.57179 11.821,-32.38612 -0.4441,-10.89609 -4.7679,-20.4872 -13.2512,-28.25516 -7.3065,-5.19559 -14.7293,-7.82873 -24.0062,-7.71882 -1.0192,0.01 -1.0192,0.01 -2.0591,0.0202 -10.3153,0.26212 -18.8249,4.07081 -25.6886,11.13627 z"
     fill="#147f9c"
     id="path4"
     style="stroke-width:0.777411" />
  <path
     d="m 776.77632,200.85201 c 0.26967,-3.90471 0.53936,-7.80939 0.81719,-11.83245 4.64046,-0.0181 9.28104,-0.0317 13.9215,-0.0405 1.57994,-0.003 3.15988,-0.01 4.73982,-0.0167 2.26584,-0.01 4.53157,-0.0133 6.79751,-0.0167 1.06619,-0.007 1.06619,-0.007 2.15393,-0.0116 1.69249,-1.7e-4 3.38487,0.0379 5.07661,0.0838 0.8173,0.73954 0.8173,0.73954 0.91785,2.77085 -7.5e-4,0.91551 0,1.83101 0,2.77427 8.5e-4,0.76196 8.5e-4,0.76196 0,1.53932 9.9e-4,1.71467 0,3.42929 -0.0108,5.14396 -2.2e-4,1.22414 -1.1e-4,2.44828 4.3e-4,3.67239 2.1e-4,3.33386 -0.0108,6.66769 -0.0108,10.00155 -0.0108,3.48011 -0.0108,6.96027 -0.0108,10.4404 0,6.59488 -0.0108,13.18978 -0.0182,19.78468 -0.0108,7.50605 -0.015,15.01207 -0.0182,22.51811 -0.0108,15.44489 -0.0236,30.88977 -0.0408,46.33466 -11.05713,0 -22.11436,0 -33.50656,0 -0.26969,-3.66066 -0.53936,-7.32133 -0.8172,-11.09291 -1.31476,1.12107 -1.31476,1.12107 -2.656,2.26478 -13.21706,10.36841 -29.29302,13.6228 -46.37806,12.52577 -4.50337,-0.56005 -8.76583,-1.67495 -13.0758,-2.95811 -0.87226,-0.25931 -1.74452,-0.5186 -2.64323,-0.78575 -16.00202,-5.40203 -27.31779,-17.66833 -34.74522,-31.1526 -0.64409,-1.42161 -1.25415,-2.85602 -1.83876,-4.2985 -0.38031,-0.88847 -0.76061,-1.77696 -1.15243,-2.69236 -6.92929,-18.2054 -4.84799,-40.96012 4.27949,-58.10113 3.08036,-5.42515 7.064,-10.12944 11.58315,-14.63836 0.44035,-0.46711 0.88069,-0.93421 1.33437,-1.41549 8.20254,-8.16858 21.05184,-13.90937 32.98943,-15.59363 0.58782,-0.0905 1.17564,-0.18113 1.78135,-0.27444 19.56696,-2.4145 35.64828,3.78309 50.52171,15.065 z m -58.02365,19.96724 c -0.48566,0.35368 -0.97131,0.70735 -1.47167,1.07173 -8.45322,6.73358 -11.72194,17.41326 -12.64798,27.20944 -0.38983,11.54206 2.75552,22.3094 11.10608,31.15838 6.61455,6.2254 13.41439,9.6454 23.03264,10.25806 11.68717,0.19352 21.07218,-2.19667 29.746,-9.57342 8.6899,-8.59302 12.00799,-19.62729 11.72866,-31.10928 -0.99105,-11.78611 -5.11316,-21.71869 -14.91138,-29.75443 -13.88645,-9.47961 -33.34964,-9.75411 -46.58235,0.73952 z"
     fill="#147f9c"
     id="path5"
     style="stroke-width:0.777411" />
  <path
     d="m 2002.8446,185.23238 c 16.8374,-0.42884 32.5285,3.64739 45.5482,13.40103 0.8259,0.54911 1.6517,1.09822 2.5027,1.66396 12.1703,9.43544 17.6527,25.18375 19.5626,39.01008 0,6.58919 0,13.17837 0,19.96725 -32.0929,0 -64.1856,0 -97.2509,0 3.9329,14.74561 3.9329,14.74561 14.9338,25.54259 1.8039,0.92749 3.6164,1.76792 5.4969,2.55947 0.7251,0.30504 1.4498,0.6101 2.1965,0.92439 9.6171,2.82254 19.8772,1.78722 28.8138,-2.18679 5.1562,-2.93615 8.5062,-6.6526 12.0991,-11.03226 0.4707,-0.56435 0.9415,-1.1287 1.4267,-1.71017 1.8336,-2.20458 3.6235,-4.40546 5.3153,-6.70195 3.0681,0.42968 5.3064,1.2078 7.9809,2.62301 1.0919,0.57199 1.0919,0.57199 2.2058,1.15551 0.751,0.4004 1.5023,0.80076 2.2764,1.21328 1.4852,0.78227 2.9705,1.5642 4.4562,2.34569 0.719,0.37988 1.438,0.75979 2.1789,1.1512 3.1449,1.6459 6.3209,3.23974 9.505,4.8228 -2.9771,11.7763 -16.9222,23.24452 -27.786,29.58111 -16.7519,9.15071 -37.8189,10.46896 -56.6572,6.68466 -17.1998,-4.40443 -31.1588,-13.11965 -40.0701,-27.31631 -0.4424,-0.75693 -0.8849,-1.51385 -1.3407,-2.2937 -0.392,-0.65016 -0.7839,-1.3003 -1.1877,-1.97016 -9.5118,-17.16329 -9.3395,-39.63047 -3.6615,-57.75539 5.613,-15.23717 15.6301,-27.66567 31.5113,-35.1189 9.4877,-4.24681 19.4178,-6.05129 29.944,-6.5604 z m -22.1292,38.77609 c -2.9477,3.32636 -3.3979,5.61987 -5.0566,10.12228 19.9572,0 39.9139,0 60.4755,0 -4.2608,-9.25343 -7.5747,-15.14524 -17.6855,-19.34615 -13.7675,-4.43468 -28.4689,-0.82224 -37.7334,9.22387 z"
     fill="#147f9c"
     id="path6"
     style="stroke-width:0.777411" />
  <path
     d="m 979.29705,197.20058 c 4.26788,4.07968 6.68195,8.89738 9.14297,14.00482 0.26637,0.52778 0.53284,1.05557 0.80713,1.59934 4.54528,11.52835 3.60621,24.74895 3.51854,36.77521 0,1.86905 -0.0182,3.73805 -0.0182,5.60707 -0.0182,4.37349 -0.0289,8.74684 -0.0525,13.12027 -0.0289,4.99002 -0.0418,9.98006 -0.0525,14.97014 -0.0268,10.24086 -0.0697,20.48156 -0.12252,30.72232 -10.78745,0 -21.575,0 -32.68947,0 -0.0257,-3.15502 -0.0257,-3.15502 -0.0483,-6.37374 -0.0536,-6.99856 -0.11704,-13.99703 -0.18586,-20.99551 -0.0397,-4.23751 -0.0771,-8.47499 -0.10987,-12.71258 -0.0311,-4.09984 -0.0686,-8.19958 -0.11168,-12.29933 -0.0182,-1.55356 -0.0289,-3.10713 -0.0375,-4.66071 0.51953,-19.65657 0.51953,-19.65657 -6.09596,-37.89501 -5.48865,-4.43832 -12.85477,-5.90152 -20.09872,-5.80065 -6.97415,0.58899 -13.53873,2.12327 -18.25379,7.03417 -8.86162,10.81159 -7.62242,25.33388 -7.69992,38.09433 -0.0182,1.6101 -0.0311,3.22016 -0.0471,4.83026 -0.0418,4.20397 -0.074,8.40796 -0.10612,12.61202 -0.0322,4.30342 -0.0739,8.60678 -0.11351,12.91014 -0.0793,8.41883 -0.1477,16.83767 -0.21063,25.25661 -11.05713,0 -22.11436,0 -33.50656,0 0,-41.24346 0,-82.48693 0,-124.98019 11.05724,0 22.11437,0 33.50656,0 0.40442,4.75886 0.40442,4.75886 0.81709,9.61385 0.80917,-0.73212 1.61811,-1.46424 2.45192,-2.21858 3.28958,-2.61482 6.78293,-4.39117 10.67522,-6.14733 0.54934,-0.24927 1.09856,-0.49857 1.66473,-0.7554 18.38832,-8.05161 41.93417,-4.69875 56.97171,7.68848 z"
     fill="#147e9b"
     id="path7"
     style="stroke-width:0.777411" />
  <path
     d="m 532.42327,116.54584 c 11.05717,0 22.11435,0 33.50658,0 1.52747,1.38222 0.91762,3.37014 0.92276,5.20939 -0.003,0.97224 -0.003,0.97224 -0.008,1.96409 6.8e-4,0.68316 10e-4,1.36629 0.002,2.07011 9.9e-4,2.30743 -0.003,4.6148 -0.009,6.92222 -2.2e-4,1.64672 -1.1e-4,3.29342 3.7e-4,4.94015 2.2e-4,4.48589 -0.005,8.97175 -0.0109,13.45764 -0.005,4.68229 -0.005,9.3646 -0.008,14.0469 -0.002,7.86396 -0.008,15.72789 -0.0144,23.59188 -0.008,8.10131 -0.0144,16.20266 -0.018,24.30399 -2.2e-4,0.49903 -4.1e-4,0.99807 -6.5e-4,1.51225 -9.9e-4,2.50337 -0.002,5.00677 -0.003,7.51019 -0.009,20.78133 -0.023,41.56266 -0.0411,62.34398 1.1798,-0.003 1.1798,-0.003 2.38344,-0.005 7.39607,-0.015 14.79212,-0.026 22.18821,-0.0333 3.80282,-0.003 7.60559,-0.01 11.4084,-0.0175 3.66677,-0.009 7.33355,-0.0134 11.00038,-0.015 1.40213,-7.8e-4 2.80424,-0.003 4.20636,-0.009 1.957,-0.005 3.91395,-0.007 5.87094,-0.007 0.5855,-0.003 1.17096,-0.005 1.77417,-0.009 4.00192,0.009 4.00192,0.009 4.91236,0.83154 0,9.51772 0,19.03544 0,28.84158 -32.36247,0 -64.72495,0 -98.06809,0 0,-65.15944 0,-130.31922 0,-197.45353 z"
     fill="#137c99"
     id="path8"
     style="stroke-width:0.777411" />
  <path
     d="m 1458.736,185.20059 c 12.8685,-0.39596 25.9118,2.36101 37.3686,7.58034 0.5836,0.26537 1.1668,0.53071 1.7679,0.80409 0.6628,0.30257 0.6628,0.30257 1.3389,0.61124 0.1585,5.44933 0.303,10.89887 0.439,16.3487 0.047,1.85514 0.099,3.71022 0.1531,5.56523 0.077,2.66151 0.1424,5.32313 0.207,7.98494 0.038,1.2503 0.038,1.2503 0.082,2.52587 0.018,0.76976 0.034,1.53959 0.048,2.33269 0.018,0.67988 0.037,1.35976 0.054,2.06023 -0.1658,1.6378 -0.1658,1.6378 -1.8001,3.11683 -2.1915,-1.96476 -4.3525,-3.94499 -6.4645,-5.97977 -7.9624,-7.57724 -16.2264,-13.67315 -28.252,-14.23591 -12.2713,-0.21515 -22.0735,1.43448 -31.4796,9.12276 -9.2852,8.66093 -12.5923,18.56977 -12.4429,30.40642 0.2909,10.11537 4.1019,19.84094 11.8301,27.36919 8.7743,7.14731 18.9428,9.15542 30.4228,8.96389 14.3025,-0.90396 24.0698,-8.18617 33.2702,-17.65333 0.7721,-0.82766 1.5407,-1.65783 2.2986,-2.49591 0.809,0.24402 1.6181,0.48809 2.4516,0.73952 -0.2696,12.6903 -0.5392,25.38059 -0.8171,38.45544 -12.2627,5.12162 -12.2627,5.12162 -17.9282,6.51709 -0.5736,0.15018 -1.1469,0.3003 -1.7381,0.45497 -18.9175,4.85223 -40.2927,2.12923 -57.5687,-6.12276 -16.9362,-9.094 -29.6817,-21.86058 -34.9366,-39.24119 -0.2005,-0.7531 -0.4005,-1.50622 -0.6065,-2.28213 -0.1836,-0.67683 -0.3668,-1.35367 -0.5558,-2.05103 -3.97,-17.56957 0.1604,-35.21768 10.3018,-50.44677 3.1147,-4.09263 6.812,-7.59238 10.6846,-11.10158 0.6573,-0.60344 1.3148,-1.20688 1.9921,-1.8286 13.6037,-11.80416 31.5136,-16.4177 49.88,-17.52046 z"
     fill="#147e9c"
     id="path9"
     style="stroke-width:0.777411" />
  <path
     d="m 1318.6025,193.45674 c 5.0172,3.68167 8.1335,8.35158 11.4414,13.31148 0.8092,1.09821 0.8092,1.09821 1.6345,2.21859 0,0.97619 0,1.95236 0,2.95812 -8.7916,4.62562 -17.7096,8.7663 -26.9688,12.57197 -0.3961,-0.55293 -0.7922,-1.10583 -1.2002,-1.67551 -4.6268,-6.24774 -4.6268,-6.24774 -11.8756,-9.41741 -4.3588,0 -6.6938,0.96355 -9.8067,3.69762 -1.1523,2.08549 -1.0179,3.60158 -0.8172,5.91623 3.9172,7.35666 14.9706,10.45711 22.7292,13.58883 14.6264,5.91281 28.3548,12.22163 35.3771,25.87769 3.9242,10.40566 1.9003,22.54008 -2.9941,32.3139 -6.4514,10.97295 -16.8089,17.54392 -29.5928,21.4665 -13.8473,3.53468 -29.7861,2.07305 -42.4103,-4.15981 -10.2985,-5.85401 -17.4978,-13.91074 -22.3364,-24.00867 0,-0.97617 0,-1.95235 0,-2.9581 0.9197,-0.36701 1.8393,-0.73404 2.7869,-1.11219 1.2673,-0.50718 2.5348,-1.01467 3.8021,-1.52237 0.6604,-0.26455 1.321,-0.5291 2.0015,-0.80167 4.9083,-1.97365 9.7816,-4.0068 14.621,-6.1157 3.5819,-1.54099 3.5819,-1.54099 5.3915,-1.54099 1.0601,1.43573 1.0601,1.43573 2.2476,3.37411 3.2194,5.00444 6.6832,10.04519 13.13,11.82663 5.7969,1.06983 11.3665,0.81776 16.4946,-1.88923 3.3221,-3.20664 3.5673,-6.50331 3.4861,-10.72892 -0.4777,-4.05639 -3.2501,-6.22038 -6.5602,-8.67503 -4.91,-3.41341 -10.4333,-5.63913 -16.0287,-7.95858 -26.8974,-11.21268 -26.8974,-11.21268 -32.3287,-23.11892 -1.315,-3.3536 -2.1612,-6.6039 -2.5058,-10.15984 -0.053,-0.51096 -0.1061,-1.02195 -0.1603,-1.54836 -0.5717,-10.34837 3.4216,-19.63989 10.6847,-27.46943 15.5145,-15.06042 41.8934,-16.21661 59.7569,-4.26094 z"
     fill="#147f9c"
     id="path10"
     style="stroke-width:0.777411" />
  <path
     d="m 904.2648,305.1254 c 0.80915,0.24407 1.61789,0.4881 2.4518,0.73955 0,2.68446 0,5.36896 0,8.1348 -11.05723,0 -22.11437,0 -33.50678,0 0,-2.44043 0,-4.88088 0,-7.39529 0.80916,0.24405 1.61831,0.48811 2.4517,0.73954 0.1029,4.25229 0.1029,4.25229 -0.8172,5.91622 9.9785,0 19.9569,0 30.23778,0 -0.40441,-4.02672 -0.40441,-4.02672 -0.8173,-8.13482 z"
     fill="#1788a8"
     id="path36"
     style="stroke-width:0.777411" />
  <path
     d="m 435.91433,81.737566 c 0.29944,0.292818 0.59888,0.585644 0.90737,0.887332 -3.74295,3.660257 -7.48583,7.320516 -11.3422,11.091687 0,-1.851949 1.01039,-2.723965 2.26841,-3.993006 0.43981,-0.356873 0.8796,-0.713745 1.33277,-1.081441 1.33333,-1.091007 2.35205,-2.212264 3.45229,-3.514673 0.87435,-0.965437 1.88603,-1.716744 2.92767,-2.502567 0.14973,-0.292819 0.29945,-0.585637 0.45369,-0.887332 z"
     fill="#0d658b"
     id="path37"
     style="stroke-width:0.44865" />
  <path
     d="m 1964.2176,196.41483 c 0,2.21858 0,2.21858 -1.0725,3.40589 -0.4551,0.38607 -0.9102,0.77217 -1.3791,1.16995 -0.4551,0.3918 -0.9103,0.7836 -1.3793,1.18728 -0.3538,0.29458 -0.7077,0.58915 -1.0724,0.89263 -0.8091,-0.24403 -1.6182,-0.48808 -2.4516,-0.73953 2.4271,-1.95235 4.8543,-3.90468 7.3549,-5.91622 z"
     fill="#065e73"
     id="path38"
     style="stroke-width:0.777411" />
</svg>
